<svg xmlns="http://www.w3.org/2000/svg" viewBox="0 0 27.04 25.07"><defs><style>.cls-1{fill:#fff;}</style></defs><title>manageyum logo</title><g id="Layer_2" data-name="Layer 2"><g id="Layer_1-2" data-name="Layer 1"><path class="cls-1" d="M16.19,18.91a1.55,1.55,0,0,0-1.34-.77H12.19a1.55,1.55,0,0,0-1.34.77l-3,5.24a.61.61,0,0,0,.53.92H18.69a.61.61,0,0,0,.53-.92Zm10.23-5.5h-6a1.55,1.55,0,0,0-1.34.77L17.7,16.49a1.55,1.55,0,0,0,0,1.55l3,5.24a.61.61,0,0,0,1.06,0L27,14.32A.61.61,0,0,0,26.43,13.4ZM9.34,16.49,8,14.18a1.55,1.55,0,0,0-1.34-.77h-6a.61.61,0,0,0-.53.92l5.17,8.95a.61.61,0,0,0,1.06,0l3-5.24A1.55,1.55,0,0,0,9.34,16.49ZM17.7,8.58,19,10.89a1.55,1.55,0,0,0,1.34.77h6a.61.61,0,0,0,.53-.92l-5.17-9a.61.61,0,0,0-1.06,0L17.7,7A1.55,1.55,0,0,0,17.7,8.58ZM10.85,6.16a1.55,1.55,0,0,0,1.34.77h2.67a1.55,1.55,0,0,0,1.34-.77l3-5.24A.61.61,0,0,0,18.69,0H8.35a.61.61,0,0,0-.53.92ZM.61,11.66h6A1.55,1.55,0,0,0,8,10.89L9.34,8.58A1.55,1.55,0,0,0,9.34,7l-3-5.24a.61.61,0,0,0-1.06,0L.08,10.74A.61.61,0,0,0,.61,11.66Z"/></g></g></svg>