<svg xmlns="http://www.w3.org/2000/svg" viewBox="0 0 16.55 16"><defs><style>.cls-1{fill:#475058;}</style></defs><title>clear catch icon</title><g id="Layer_2" data-name="Layer 2"><g id="Layer_1-2" data-name="Layer 1"><path class="cls-1" d="M15.95.39a1.67,1.67,0,0,0-2.26.1c-3.33,3.31-4.57,4.55-5,5a1.47,1.47,0,0,0-1.46.17C4.72,7.51.8,5.65.76,5.63A.5.5,0,0,0,0,6C-.69,14,8,16,8.12,16h.1a.5.5,0,0,0,.47-.33l2.38-6.81a1.44,1.44,0,0,0,0-1c.42-.43,2.31-2.32,5-5A1.68,1.68,0,0,0,15.95.39ZM7.78,6.5a.46.46,0,0,1,.59,0h0L10,8a.45.45,0,0,1,.12.48L9.63,10,6.72,7.08A4.82,4.82,0,0,0,7.78,6.5Zm.12,8.41a12.32,12.32,0,0,1-1.32-.46A9.7,9.7,0,0,0,8,11.93a.5.5,0,0,0-.93-.37A8.35,8.35,0,0,1,5.64,14a10.43,10.43,0,0,1-1.91-1.26A6.1,6.1,0,0,0,6.16,11a.5.5,0,1,0-.75-.66A4.45,4.45,0,0,1,3,11.94L2.9,12a7.18,7.18,0,0,1-1.39-2.2A5,5,0,0,0,2.94,10,3.62,3.62,0,0,0,4.78,9.5a.5.5,0,1,0-.5-.86,3.61,3.61,0,0,1-3.1-.07h0A7.92,7.92,0,0,1,1,6.82a9.3,9.3,0,0,0,4.62.58L9.26,11ZM15.35,2.16c-3.29,3.26-4.47,4.46-4.92,4.91l-1-.93c.66-.67,2.42-2.42,5-4.95a.68.68,0,0,1,1,1Z"/></g></g></svg>