<svg xmlns="http://www.w3.org/2000/svg" viewBox="0 0 15.27 16.46"><defs><style>.cls-1{fill:#475058;}</style></defs><title>setting icon</title><g id="Layer_2" data-name="Layer 2"><g id="Layer_1-2" data-name="Layer 1"><path class="cls-1" d="M7.64,5.56A2.76,2.76,0,1,0,10.4,8.32,2.76,2.76,0,0,0,7.64,5.56Zm0,4.22A1.46,1.46,0,1,1,9.1,8.32,1.46,1.46,0,0,1,7.64,9.78Zm6.35,0a6.58,6.58,0,0,0,0-3.17L14.84,6a1,1,0,0,0,.25-1.39L13.48,2.33a1,1,0,0,0-.64-.41,1,1,0,0,0-.75.17l-.79.56A6.41,6.41,0,0,0,10,2v-1a1,1,0,0,0-1-1L6.24,0a1,1,0,0,0-.71.28,1,1,0,0,0-.3.7V2A6.75,6.75,0,0,0,4,2.61l-.74-.51a1,1,0,0,0-1.4.23L.18,4.63A1,1,0,0,0,.42,6l.71.51a6.56,6.56,0,0,0,0,3.21l-.61.43a1,1,0,0,0-.24,1.4L1.9,13.87a1,1,0,0,0,1.4.25l.65-.45a6.73,6.73,0,0,0,1.28.65V15.4a1,1,0,0,0,1,1l2.81,0H9a1,1,0,0,0,1-1V14.33a6,6,0,0,0,1.17-.62l.69.51a1,1,0,0,0,1.4-.23l1.63-2.29a1,1,0,0,0-.23-1.4ZM12.65,6.54a5.32,5.32,0,0,1,0,3.3l-.15.46,1.24.89L12.42,13l-1.21-.89-.39.3a4.89,4.89,0,0,1-1.62.86l-.46.14v1.78l-2.21,0V13.38l-.46-.14a5.42,5.42,0,0,1-1.72-.87L4,12.08l-1.18.81L1.51,11.06l1.14-.8L2.5,9.81a5.31,5.31,0,0,1,0-3.33L2.65,6,1.42,5.14,2.71,3.33,4,4.21l.38-.29A5.36,5.36,0,0,1,6.06,3l.46-.14V1.3l2.21,0V2.95l.46.14A5.19,5.19,0,0,1,10.9,4l.38.3,1.32-.93,1.26,1.81-1.35.94Z"/></g></g></svg>