<svg xmlns="http://www.w3.org/2000/svg" viewBox="0 0 15.99 16"><defs><style>.cls-1{fill:#475058;}</style></defs><title>edit icon</title><g id="Layer_2" data-name="Layer 2"><g id="Layer_1-2" data-name="Layer 1"><path class="cls-1" d="M12.4,9.4a.5.5,0,0,0-.5.5V15H1V4.1H5.4a.5.5,0,0,0,0-1H.5a.5.5,0,0,0-.5.5V15.5a.5.5,0,0,0,.5.5H12.4a.5.5,0,0,0,.5-.5V9.9A.5.5,0,0,0,12.4,9.4Zm3.44-6.3-3-3A.5.5,0,0,0,12.52,0h0a.5.5,0,0,0-.35.15L5.31,7a.51.51,0,0,0-.14.28l-.55,3.51a.5.5,0,0,0,.49.58h.08l3.51-.56A.5.5,0,0,0,9,10.69L15.84,3.8A.5.5,0,0,0,15.84,3.1ZM8.39,9.87l-2.67.43.42-2.67,4.49-4.51,2.25,2.25Zm5.19-5.21L11.33,2.41l1.2-1.2,2.25,2.25Z"/></g></g></svg>