<svg xmlns="http://www.w3.org/2000/svg" viewBox="0 0 31.12 24.45"><defs><style>.cls-1{fill:#fff;}</style></defs><title>Asset 26</title><g id="Layer_2" data-name="Layer 2"><g id="Layer_1-2" data-name="Layer 1"><path class="cls-1" d="M28.15,7.54c-2.71,1.88-5.43,3.75-8.13,5.64-1.13.78-3,2.38-4.45,2.38h0c-1.41,0-3.32-1.6-4.45-2.38C8.4,11.29,5.68,9.41,3,7.54,1.75,6.7,0,4.74,0,3.16S.92,0,2.78,0H28.34a2.8,2.8,0,0,1,2.78,2.78C31.12,4.72,29.68,6.48,28.15,7.54Zm3,14.13a2.79,2.79,0,0,1-2.78,2.78H2.78A2.79,2.79,0,0,1,0,21.67V7.88A9.74,9.74,0,0,0,1.75,9.39c2.88,2,5.8,3.92,8.63,6,1.46,1.08,3.26,2.4,5.16,2.4h0c1.89,0,3.7-1.32,5.16-2.4,2.83-2,5.75-4,8.65-6a10.27,10.27,0,0,0,1.74-1.51Z"/></g></g></svg>