<svg xmlns="http://www.w3.org/2000/svg" viewBox="0 0 13.52 11.7"><defs><style>.cls-1{fill:#fe4450;}.cls-2{fill:#fff;}</style></defs><title>Asset 28</title><g id="Layer_2" data-name="Layer 2"><g id="Layer_1-2" data-name="Layer 1"><path class="cls-1" d="M2.28,6.6l4.45,4.29h0l4.46-4.28a4.57,4.57,0,0,0,1.5-2.91,2.7,2.7,0,0,0-3-2.93A4.36,4.36,0,0,0,7,2.21l-.28.27-.28-.27A4.36,4.36,0,0,0,3.79.79a2.7,2.7,0,0,0-3,2.93A4.67,4.67,0,0,0,2.28,6.6Z"/><path class="cls-2" d="M6.76,11.7a.83.83,0,0,1-.59-.24L1.74,7.19A5.39,5.39,0,0,1,0,3.72,3.48,3.48,0,0,1,3.79,0a4.79,4.79,0,0,1,3,1.39A4.79,4.79,0,0,1,9.73,0a3.48,3.48,0,0,1,3.79,3.72,5.34,5.34,0,0,1-1.73,3.47L7.35,11.46A.83.83,0,0,1,6.76,11.7ZM3.79.79a2.7,2.7,0,0,0-3,2.93A4.67,4.67,0,0,0,2.28,6.6l4.45,4.29h0l4.46-4.28a4.57,4.57,0,0,0,1.5-2.91,2.7,2.7,0,0,0-3-2.93A4.36,4.36,0,0,0,7,2.21l-.28.27-.28-.27A4.36,4.36,0,0,0,3.79.79Z"/></g></g></svg>