<svg xmlns="http://www.w3.org/2000/svg" viewBox="0 0 12.07 17.03"><defs><style>.cls-1{fill:#475058;}</style></defs><title>notification on</title><g id="Layer_2" data-name="Layer 2"><g id="Layer_1-2" data-name="Layer 1"><path class="cls-1" d="M11.89,12.4l-.94-1.9a4.46,4.46,0,0,1-.46-2V6.79A5.68,5.68,0,0,0,8,2.07S8,2,8,2A2,2,0,0,0,4.07,2s0,.07,0,.1a5.68,5.68,0,0,0-2.5,4.72V8.54a4.44,4.44,0,0,1-.46,2L.19,12.4A1.81,1.81,0,0,0,1.81,15H3.53a2.64,2.64,0,0,0,5.14,0h1.6a1.81,1.81,0,0,0,1.62-2.61ZM6.25,1.33H5.82A.68.68,0,0,1,6.25,1.33Zm-.16,14.4A1.35,1.35,0,0,1,4.9,15H7.28A1.35,1.35,0,0,1,6.09,15.73Zm4.6-2.26a.5.5,0,0,1-.43.24H1.81A.51.51,0,0,1,1.35,13l.94-1.9a5.76,5.76,0,0,0,.59-2.54V6.79A4.46,4.46,0,0,1,5,3l.27-.17a1.46,1.46,0,0,1,.52-.19,1.54,1.54,0,0,1,.49,0h.06a1.41,1.41,0,0,1,.48.18L7.08,3A4.46,4.46,0,0,1,9.19,6.79V8.54a5.78,5.78,0,0,0,.59,2.54l.94,1.9A.5.5,0,0,1,10.7,13.47Z"/></g></g></svg>