<svg xmlns="http://www.w3.org/2000/svg" viewBox="0 0 13.96 17.03"><defs><style>.cls-1{fill:#475058;}</style></defs><title>notification off</title><g id="Layer_2" data-name="Layer 2"><g id="Layer_1-2" data-name="Layer 1"><path class="cls-1" d="M12.52,10.5a4.46,4.46,0,0,1-.46-2V7l-1.3,1.3v.22a5.78,5.78,0,0,0,.59,2.54l.94,1.9a.51.51,0,0,1-.45.73H5.37L4.07,15h1a2.64,2.64,0,0,0,5.14,0h1.6a1.81,1.81,0,0,0,1.62-2.61ZM7.67,15.73A1.35,1.35,0,0,1,6.48,15H8.86A1.35,1.35,0,0,1,7.67,15.73ZM13.77,2a.65.65,0,0,0-.92,0L11.16,3.72a5.71,5.71,0,0,0-1.6-1.65s0-.07,0-.1A2,2,0,0,0,5.64,2s0,.07,0,.1a5.69,5.69,0,0,0-2.5,4.72V8.54a4.44,4.44,0,0,1-.46,2l-.94,1.9a1.8,1.8,0,0,0-.19.9L.19,14.69a.65.65,0,0,0,.92.92h0l2-2L10.69,6,11.76,5l2-2h0A.65.65,0,0,0,13.77,2ZM7.61,1.3a.67.67,0,0,1,.21,0H7.4A.66.66,0,0,1,7.61,1.3ZM3.92,11a5.75,5.75,0,0,0,.54-2.42V6.79A4.4,4.4,0,0,1,6.57,3l.27-.17a1.46,1.46,0,0,1,.63-.2l.14,0,.16,0a1.47,1.47,0,0,1,.61.2L8.66,3a4.43,4.43,0,0,1,1.56,1.65Z"/></g></g></svg>