<svg xmlns="http://www.w3.org/2000/svg" viewBox="0 0 27.37 22.23"><defs><style>.cls-1{fill:#fff;}</style></defs><title>Asset 27</title><g id="Layer_2" data-name="Layer 2"><g id="Layer_1-2" data-name="Layer 1"><path class="cls-1" d="M24.55,5.54c0,.24,0,.49,0,.73a15.85,15.85,0,0,1-16,16A15.85,15.85,0,0,1,0,19.71a11.71,11.71,0,0,0,1.36.07,11.23,11.23,0,0,0,7-2.4,5.62,5.62,0,0,1-5.24-3.89,7.12,7.12,0,0,0,1.06.09,5.91,5.91,0,0,0,1.48-.19,5.61,5.61,0,0,1-4.5-5.5V7.81a5.67,5.67,0,0,0,2.54.71A5.62,5.62,0,0,1,1.91,1,16,16,0,0,0,13.48,6.89a6.26,6.26,0,0,1-.14-1.29A5.61,5.61,0,0,1,23,1.77,11,11,0,0,0,26.6.42a5.59,5.59,0,0,1-2.47,3.09,11.29,11.29,0,0,0,3.23-.87A12.05,12.05,0,0,1,24.55,5.54Z"/></g></g></svg>