<svg xmlns="http://www.w3.org/2000/svg" viewBox="0 0 39.06 45"><defs><style>.cls-1{fill:#205081;}</style></defs><title>Bitbucket</title><g id="Layer_2" data-name="Layer 2"><g id="Layer_1-2" data-name="Layer 1"><path class="cls-1" d="M19.53,0C8.81,0,0,2.87,0,6.51c0,1,2.3,14.55,3.26,19.91.38,2.49,6.7,5.94,16.28,5.94s15.7-3.45,16.28-5.94c1-5.36,3.26-19,3.26-19.91C38.87,2.87,30.26,0,19.53,0Zm0,28a6.13,6.13,0,1,1,6.13-6.13A6.17,6.17,0,0,1,19.53,28Zm0-19.53c-6.89,0-12.45-1.15-12.45-2.68s5.55-2.68,12.45-2.68S32,4.21,32,5.74,26.43,8.43,19.53,8.43Z"/><path class="cls-1" d="M33.66,31.6a.84.84,0,0,0-.57.19s-4.79,3.83-13.4,3.83-13.4-3.83-13.4-3.83a1.93,1.93,0,0,0-.57-.19.7.7,0,0,0-.77.77v.19c.77,4,1.34,6.89,1.34,7.28C6.86,42.7,12.6,45,19.49,45s12.64-2.3,13.21-5.17c0-.38.57-3.26,1.34-7.28v-.19c.19-.38,0-.77-.38-.77Z"/><circle class="cls-1" cx="19.53" cy="21.64" r="3.06"/></g></g></svg>