<?xml version="1.0" encoding="UTF-8" standalone="no"?>
<svg width="80px" height="80px" viewBox="0 0 80 80" version="1.1" xmlns="http://www.w3.org/2000/svg" xmlns:xlink="http://www.w3.org/1999/xlink">
    <!-- Generator: Sketch 3.7.2 (28276) - http://www.bohemiancoding.com/sketch -->
    <title>chatwork</title>
    <desc>Created with Sketch.</desc>
    <defs></defs>
    <g id="icons" stroke="none" stroke-width="1" fill="none" fill-rule="evenodd">
        <g id="chatwork">
            <g id="Page-1">
                <path d="M35.8180496,60.4865455 L35.8180496,63.0637355 L35.8140826,63.0637355 C35.5866446,65.2138182 34.6537521,67.3050579 33.0061488,68.9500165 C29.1886281,72.7688595 22.9717686,72.7688595 19.150281,68.9486942 C15.3287934,65.1258843 15.3287934,58.9136529 19.150281,55.0928264 C20.7886281,53.4485289 22.8739174,52.5149752 25.024,52.286876 L25.024,52.2915041 L35.7955702,52.2915041 L44.0163967,52.2915041 C39.4808595,52.2915041 35.8180496,55.9622479 35.8180496,60.4865455 L35.8180496,60.4865455 Z M35.8392066,63.0888595 L35.8286281,63.0829091 L35.8444959,63.0829091 L35.8392066,63.0888595 Z M19.4854876,35.8901818 L16.9082975,35.8901818 L16.9082975,35.8862149 C14.758876,35.6587769 12.6676364,34.7258843 11.0233388,33.078281 C7.20383471,29.2600992 7.20383471,23.0439008 11.0253223,19.2224132 C14.8468099,15.4002645 21.0583802,15.4002645 24.8792066,19.2224132 C26.522843,20.8600992 27.457719,22.9453884 27.6871405,25.0954711 L27.6805289,25.0954711 L27.6805289,35.8677025 L27.6805289,44.0891901 C27.6805289,39.5529917 24.0117686,35.8901818 19.4854876,35.8901818 L19.4854876,35.8901818 Z M16.8897851,35.9166281 L16.8844959,35.9113388 L16.8897851,35.9007603 L16.8897851,35.9166281 Z M63.0107769,44.0726612 L63.0107769,44.0567934 L63.0160661,44.0627438 L63.0107769,44.0726612 Z M74.6478017,41.1239008 C71.322843,37.7996033 67.0081322,36.0495207 62.645157,35.8862149 L52.2035041,35.8862149 C52.2035041,40.4210909 55.8901157,44.0832397 60.4144132,44.0832397 L62.9929256,44.0832397 L62.9929256,44.0891901 C65.1423471,44.3159669 67.2329256,45.2488595 68.8772231,46.8951405 C72.6973884,50.7139835 72.6973884,56.9295207 68.8759008,60.7523306 C65.0537521,64.5751405 58.8421818,64.5751405 55.0213554,60.7523306 C53.377719,59.1153058 52.4421818,57.0286942 52.2140826,54.8786116 L52.2200331,54.8786116 L52.2035041,44.1077025 L52.2035041,35.8862149 L44.0163967,35.8862149 L44.0163967,44.0891901 L35.8841653,44.0891901 L35.8841653,26.9387769 C35.9033388,21.4729917 34.3535868,17.1516694 30.6504463,13.4485289 C23.6501157,6.45084298 12.257719,6.45084298 5.25276033,13.4485289 C-1.75087603,20.4528264 -1.75087603,31.8478678 5.25276033,38.8495207 C8.57771901,42.1758017 12.8924298,43.9252231 17.2567273,44.0891901 L26.8666446,44.0891901 C21.4008595,44.0700165 17.0795372,45.6191074 13.3770579,49.3242314 C6.37871074,56.3232397 6.37871074,67.714314 13.3770579,74.7192727 C20.3806942,81.7248926 31.7757355,81.7248926 38.7780496,74.7192727 C42.1036694,71.394314 43.8524298,67.0802645 44.0163967,62.7166281 L44.0163967,53.0353058 C43.9985455,58.5017521 45.5469752,62.8224132 49.251438,66.5248926 C56.2504463,73.5225785 67.6421818,73.5225785 74.6478017,66.5248926 C81.6534215,59.5219174 81.6534215,48.1275372 74.6478017,41.1239008 L74.6478017,41.1239008 Z" id="Fill-1" fill="#E73B2B"></path>
                <path d="M44.055405,16.8921653 L44.0606942,16.886876 L44.0706116,16.8921653 L44.055405,16.8921653 Z M66.522843,5.25381818 C59.5205289,-1.7511405 48.1248264,-1.7511405 41.1211901,5.25381818 C37.7975537,8.5781157 36.0481322,12.8934876 35.8841653,17.2564628 L35.8841653,27.6822479 C40.4190413,27.6822479 44.0811901,24.0115041 44.0811901,19.4872066 L44.0811901,16.9106777 L44.0871405,16.9106777 C44.3145785,14.7592727 45.2474711,12.6693554 46.8937521,11.0250579 C50.7119339,7.2042314 56.9274711,7.2042314 60.750281,11.0250579 C64.5724298,14.8491901 64.5724298,21.059438 60.750281,24.8809256 C59.112595,26.524562 57.0266446,27.4600992 54.876562,27.6875372 L54.876562,27.6822479 L44.1056529,27.6822479 L35.8841653,27.6822479 L35.8841653,35.8852231 L53.0339174,35.8852231 C58.5003636,35.9030744 62.8210248,34.3546446 66.522843,30.6495207 C73.5205289,23.6518347 73.5205289,12.259438 66.522843,5.25381818 L66.522843,5.25381818 Z" id="Fill-3" fill="#46403C"></path>
                <polygon id="Fill-5" points="27.6806612 44.0879339 35.8836364 44.0879339 35.8836364 35.8796694 27.6806612 35.8796694"></polygon>
                <polygon id="Fill-7" points="35.8089256 52.2915702 44.0165289 52.2915702 44.0165289 44.0872727 35.8089256 44.0872727"></polygon>
                <polygon id="Fill-9" points="44.0165289 44.0872727 52.2036364 44.0872727 52.2036364 35.8790083 44.0165289 35.8790083"></polygon>
            </g>
        </g>
    </g>
</svg>