<svg xmlns="http://www.w3.org/2000/svg" viewBox="0 0 45 45"><defs><style>.cls-1{fill:#49bc82;}.cls-2{fill:#57b6df;}.cls-3{fill:#276392;}.cls-4{fill:#fabb66;}</style></defs><title>Close.io</title><g id="Layer_2" data-name="Layer 2"><g id="Layer_1-2" data-name="Layer 1"><path class="cls-1" d="M34.14,29.35q.13-.94.22-1.91-1,1.22-2.14,2.42Q33.22,29.63,34.14,29.35ZM10.91,15.75q-.13.93-.23,1.89,1-1.21,2.11-2.4Q11.81,15.47,10.91,15.75Zm23.66,5.08q.54-.87,1-1.73-.58-.76-1.21-1.52Q34.51,19.16,34.56,20.82ZM9.51,25.9q.55.74,1.16,1.48-.15-1.54-.2-3.16Q9.95,25.07,9.51,25.9Zm19.77,8.28a25.35,25.35,0,0,1-.92,2.49,17.15,17.15,0,0,1-1.77,3.18,6.94,6.94,0,0,1-4.06,3,7.22,7.22,0,0,1-4.15-3.09,17.94,17.94,0,0,1-3.49.95A12.73,12.73,0,0,0,16,42.15,7.84,7.84,0,0,0,22.51,45a8.2,8.2,0,0,0,6.8-3.21c.27-.31.53-.63.78-1a17.34,17.34,0,0,0,1.79-3.14,26.48,26.48,0,0,0,1.46-4.28A37.42,37.42,0,0,1,29.28,34.18Zm0-30.9C27.43,1.2,25.66,0,22.51,0a7.16,7.16,0,0,0-5.94,2.46A12.72,12.72,0,0,0,15,4.3a18,18,0,0,0-1.74,3,26.88,26.88,0,0,0-1.54,4.41,36.89,36.89,0,0,1,4-.81,25.33,25.33,0,0,1,.95-2.59,17.29,17.29,0,0,1,1.72-3.11,7.26,7.26,0,0,1,4.13-3.17,6.92,6.92,0,0,1,4.11,3.11A17.37,17.37,0,0,1,30,4.25C29.77,3.91,29.51,3.58,29.25,3.28Zm.07,7.64q-.91-.13-1.86-.22,1.19,1,2.37,2.08Q29.6,11.82,29.32,10.92ZM15.72,34.15q1,.14,1.94.24-1.24-1-2.46-2.17Q15.44,33.23,15.72,34.15ZM41,31.33c0-.4-.07-.8-.13-1.21a17.25,17.25,0,0,0-.95-3.49,26.48,26.48,0,0,0-2-4.12A37.34,37.34,0,0,1,35.54,26a25.31,25.31,0,0,1,1.14,2.47,17,17,0,0,1,1,3.5,6.91,6.91,0,0,1-.72,5,7.19,7.19,0,0,1-5.06.76,17.34,17.34,0,0,1-1.79,3.14,12.67,12.67,0,0,0,1.73.16,7.84,7.84,0,0,0,6.59-2.56A8.21,8.21,0,0,0,41,31.33ZM13.69,4.15C10.93,4,8.83,4.36,6.6,6.59a7.16,7.16,0,0,0-2.46,5.94A12.74,12.74,0,0,0,4.32,15a18.06,18.06,0,0,0,.92,3.37,26.89,26.89,0,0,0,2,4.15,37,37,0,0,1,2.29-3.42A25.38,25.38,0,0,1,8.4,16.65a17.38,17.38,0,0,1-1-3.41A7.29,7.29,0,0,1,8.08,8a7,7,0,0,1,5.16-.7A18,18,0,0,1,15,4.3C14.54,4.23,14.11,4.18,13.69,4.15ZM34.35,17.57q-.09-.92-.22-1.8a36.87,36.87,0,0,0-.81-4.08,26.92,26.92,0,0,0-1.49-4.28,17.22,17.22,0,0,0-3.42,1,25.81,25.81,0,0,1,.92,2.53q.28.89.51,1.86t.43,2a41.13,41.13,0,0,1,.53,4.25c.08,1.1.13,2.23.13,3.4s0,2.32-.13,3.43a42,42,0,0,0,2.67-3.4c.4-.57.77-1.13,1.11-1.69Q34.51,19.16,34.35,17.57ZM15.72,34.15q-.28-.93-.52-1.93t-.41-2a42.06,42.06,0,0,1-.52-4.34c-.08-1.11-.12-2.25-.12-3.43s0-2.32.13-3.42a41.29,41.29,0,0,0-2.67,3.42q-.61.88-1.14,1.74.05,1.61.2,3.16.09,1,.22,1.92a37.46,37.46,0,0,0,.78,4,26.53,26.53,0,0,0,1.47,4.33,17.21,17.21,0,0,0,3.5-1A24.6,24.6,0,0,1,15.72,34.15Zm3.4-24.66q-.78.59-1.55,1.23,1.62-.16,3.32-.22C20.3,10.13,19.71,9.8,19.12,9.49ZM8,37a7,7,0,0,1-.7-5.16,18,18,0,0,1-3-1.74c-.07.44-.12.87-.15,1.29-.18,2.76.21,4.86,2.44,7.08a7.16,7.16,0,0,0,5.94,2.46,12.65,12.65,0,0,0,2.36-.16,17.39,17.39,0,0,1-1.75-3.09A7.22,7.22,0,0,1,8,37Zm11.06-1.46a25.33,25.33,0,0,1-2.46,1.14,16.48,16.48,0,0,0,1.75,3.15,26.89,26.89,0,0,0,4.11-2A37.45,37.45,0,0,1,19.09,35.53Zm6.84,0q.73-.54,1.45-1.13-1.51.14-3.09.19Q25.12,35.1,25.93,35.53Zm-9.3,1.13a17.21,17.21,0,0,1-3.5,1,17.39,17.39,0,0,0,1.75,3.09,17.94,17.94,0,0,0,3.49-.95A16.48,16.48,0,0,1,16.63,36.67Zm21.78-30A8.21,8.21,0,0,0,31.33,4.1,13.13,13.13,0,0,0,30,4.25a17.37,17.37,0,0,0-3.37.92,26.49,26.49,0,0,0-4.15,2A37,37,0,0,1,26,9.52a25.36,25.36,0,0,1,2.45-1.13,17.22,17.22,0,0,1,3.42-1,7,7,0,0,1,5.09.7,7.18,7.18,0,0,1,.76,5.06A17.33,17.33,0,0,1,40.81,15,12.65,12.65,0,0,0,41,13.23,7.83,7.83,0,0,0,38.41,6.64ZM36.67,16.71a24.57,24.57,0,0,1-1.12,2.39q-.45.85-1,1.73c-.34.56-.71,1.12-1.11,1.69a42,42,0,0,1-2.67,3.4q-1.11,1.28-2.39,2.56t-2.49,2.32a42.08,42.08,0,0,0,4.33-.52q1-.18,2-.41,1.13-1.2,2.14-2.42Q35,26.7,35.54,26a37.34,37.34,0,0,0,2.33-3.44,26.48,26.48,0,0,0,2-4A17.15,17.15,0,0,0,36.67,16.71Zm-21.86-1.9q-1,.19-2,.42-1.11,1.19-2.11,2.4-.59.73-1.14,1.45a37,37,0,0,0-2.29,3.42,27,27,0,0,0-2,4.15,17.27,17.27,0,0,0,3.11,1.72A25.75,25.75,0,0,1,9.51,25.9q.44-.83,1-1.68t1.14-1.74a41.29,41.29,0,0,1,2.67-3.42q1.06-1.22,2.27-2.44t2.53-2.35A41.12,41.12,0,0,0,14.81,14.81Zm27,.94c-.31-.27-.63-.53-1-.78a17.33,17.33,0,0,0-3.14-1.79,26.57,26.57,0,0,0-4.36-1.48,36.87,36.87,0,0,1,.81,4.08,25.41,25.41,0,0,1,2.54.94,17.15,17.15,0,0,1,3.18,1.77,6.94,6.94,0,0,1,3,4.06,7.16,7.16,0,0,1-3,4.1,17.25,17.25,0,0,1,.95,3.49A12.65,12.65,0,0,0,42.15,29,7.84,7.84,0,0,0,45,22.55,8.21,8.21,0,0,0,41.79,15.75ZM10.88,29.31a25.27,25.27,0,0,1-2.53-.93,17.27,17.27,0,0,1-3.11-1.72,7.26,7.26,0,0,1-3.17-4.13,7,7,0,0,1,3.18-4.16A18.06,18.06,0,0,1,4.32,15c-.37.26-.71.53-1,.82C1.2,17.64,0,19.4,0,22.55a7.16,7.16,0,0,0,2.46,5.94,12.71,12.71,0,0,0,1.84,1.6,18,18,0,0,0,3,1.74,26.78,26.78,0,0,0,4.32,1.51A37.46,37.46,0,0,1,10.88,29.31ZM22.55,11.58q-.83-.58-1.66-1.09-1.7.05-3.32.22-.93.09-1.83.22a36.89,36.89,0,0,0-4,.81,27,27,0,0,0-4.29,1.49,17.38,17.38,0,0,0,1,3.41,25.76,25.76,0,0,1,2.5-.91q.9-.28,1.88-.51t2-.42a41.12,41.12,0,0,1,4.27-.53c1.1-.08,2.23-.13,3.4-.13s2.39,0,3.53.14A41.24,41.24,0,0,0,22.55,11.58ZM36.68,28.42a24.55,24.55,0,0,1-2.54.92q-.92.28-1.91.52t-2,.41a42.08,42.08,0,0,1-4.33.52c-1.11.08-2.25.12-3.43.12s-2.25,0-3.32-.12a42,42,0,0,0,3.36,2.64c.6.42,1.19.8,1.77,1.16q1.58-.05,3.09-.19,1-.09,1.89-.22a37.42,37.42,0,0,0,4.08-.78,26.53,26.53,0,0,0,4.32-1.47A17,17,0,0,0,36.68,28.42ZM25.93,35.53q-.81-.43-1.64-.94c-.58-.36-1.18-.75-1.77-1.16a42,42,0,0,1-3.36-2.64q-1.29-1.11-2.57-2.39t-2.32-2.49a42.06,42.06,0,0,0,.52,4.34q.18,1,.41,2,1.22,1.15,2.46,2.17.72.59,1.43,1.14a37.45,37.45,0,0,0,3.4,2.3,26.59,26.59,0,0,0,4.1,2,17.15,17.15,0,0,0,1.77-3.18A24.62,24.62,0,0,1,25.93,35.53Zm4.33-20.71q-.19-1.06-.43-2-1.17-1.1-2.37-2.08-.75-.62-1.51-1.19a37,37,0,0,0-3.46-2.31,26.91,26.91,0,0,0-4.08-2,17.29,17.29,0,0,0-1.72,3.11,25.76,25.76,0,0,1,2.44,1.14c.58.31,1.17.64,1.77,1s1.1.7,1.66,1.09A41.24,41.24,0,0,1,26,14.28q1.22,1.06,2.43,2.26t2.35,2.53A41.13,41.13,0,0,0,30.26,14.83Z"/><path class="cls-1" d="M34.14,29.35q.13-.94.22-1.91-1,1.22-2.14,2.42,1-.23,1.91-.52"/><path class="cls-1" d="M10.91,15.75q-.13.93-.23,1.89,1-1.21,2.11-2.4-1,.23-1.88.51"/><path class="cls-2" d="M34.56,20.82q.54-.87,1-1.73-.58-.76-1.21-1.52.16,1.59.21,3.25"/><path class="cls-2" d="M9.51,25.9q.55.74,1.16,1.48-.15-1.54-.2-3.16-.52.85-1,1.68"/><path class="cls-1" d="M29.28,34.18a25.35,25.35,0,0,1-.92,2.49,17.15,17.15,0,0,1-1.77,3.18,6.94,6.94,0,0,1-4.06,3,7.22,7.22,0,0,1-4.15-3.09,17.94,17.94,0,0,1-3.49.95A12.73,12.73,0,0,0,16,42.15,7.84,7.84,0,0,0,22.51,45a8.2,8.2,0,0,0,6.8-3.21c.27-.31.53-.63.78-1a17.34,17.34,0,0,0,1.79-3.14,26.48,26.48,0,0,0,1.46-4.28,37.42,37.42,0,0,1-4.08.78"/><path class="cls-1" d="M29.25,3.28C27.43,1.2,25.66,0,22.51,0a7.16,7.16,0,0,0-5.94,2.46A12.72,12.72,0,0,0,15,4.3a18,18,0,0,0-1.74,3,26.88,26.88,0,0,0-1.54,4.41,36.89,36.89,0,0,1,4-.81,25.33,25.33,0,0,1,.95-2.59,17.29,17.29,0,0,1,1.72-3.11,7.26,7.26,0,0,1,4.13-3.17,6.92,6.92,0,0,1,4.11,3.11A17.37,17.37,0,0,1,30,4.25c-.25-.34-.5-.66-.76-1"/><path class="cls-3" d="M29.32,10.92q-.91-.13-1.86-.22,1.19,1,2.37,2.08-.23-1-.51-1.86"/><path class="cls-3" d="M15.72,34.15q1,.14,1.94.24-1.24-1-2.46-2.17.24,1,.52,1.93"/><path class="cls-2" d="M41,31.33c0-.4-.07-.8-.13-1.21a17.25,17.25,0,0,0-.95-3.49,26.48,26.48,0,0,0-2-4.12A37.34,37.34,0,0,1,35.54,26a25.31,25.31,0,0,1,1.14,2.47,17,17,0,0,1,1,3.5,6.91,6.91,0,0,1-.72,5,7.19,7.19,0,0,1-5.06.76,17.34,17.34,0,0,1-1.79,3.14,12.67,12.67,0,0,0,1.73.16,7.84,7.84,0,0,0,6.59-2.56A8.21,8.21,0,0,0,41,31.33"/><path class="cls-2" d="M13.69,4.15C10.93,4,8.83,4.36,6.6,6.59a7.16,7.16,0,0,0-2.46,5.94A12.74,12.74,0,0,0,4.32,15a18.06,18.06,0,0,0,.92,3.37,26.89,26.89,0,0,0,2,4.15,37,37,0,0,1,2.29-3.42A25.38,25.38,0,0,1,8.4,16.65a17.38,17.38,0,0,1-1-3.41A7.29,7.29,0,0,1,8.08,8a7,7,0,0,1,5.16-.7A18,18,0,0,1,15,4.3c-.44-.07-.87-.12-1.29-.15"/><path class="cls-1" d="M34.35,17.57q-.09-.92-.22-1.8a36.87,36.87,0,0,0-.81-4.08,26.92,26.92,0,0,0-1.49-4.28,17.22,17.22,0,0,0-3.42,1,25.81,25.81,0,0,1,.92,2.53q.28.89.51,1.86t.43,2a41.13,41.13,0,0,1,.53,4.25c.08,1.1.13,2.23.13,3.4s0,2.32-.13,3.43a42,42,0,0,0,2.67-3.4c.4-.57.77-1.13,1.11-1.69q-.05-1.66-.21-3.25"/><path class="cls-1" d="M15.72,34.15q-.28-.93-.52-1.93t-.41-2a42.06,42.06,0,0,1-.52-4.34c-.08-1.11-.12-2.25-.12-3.43s0-2.32.13-3.42a41.29,41.29,0,0,0-2.67,3.42q-.61.88-1.14,1.74.05,1.61.2,3.16.09,1,.22,1.92a37.46,37.46,0,0,0,.78,4,26.53,26.53,0,0,0,1.47,4.33,17.21,17.21,0,0,0,3.5-1,24.6,24.6,0,0,1-.91-2.51"/><path class="cls-4" d="M19.12,9.49q-.78.59-1.55,1.23,1.62-.16,3.32-.22c-.6-.37-1.19-.7-1.77-1"/><path class="cls-4" d="M8,37a7,7,0,0,1-.7-5.16,18,18,0,0,1-3-1.74c-.07.44-.12.87-.15,1.29-.18,2.76.21,4.86,2.44,7.08a7.16,7.16,0,0,0,5.94,2.46,12.65,12.65,0,0,0,2.36-.16,17.39,17.39,0,0,1-1.75-3.09A7.22,7.22,0,0,1,8,37"/><path class="cls-4" d="M19.09,35.53a25.33,25.33,0,0,1-2.46,1.14,16.48,16.48,0,0,0,1.75,3.15,26.89,26.89,0,0,0,4.11-2,37.45,37.45,0,0,1-3.4-2.3"/><path class="cls-4" d="M25.93,35.53q.73-.54,1.45-1.13-1.51.14-3.09.19.83.51,1.64.94"/><path class="cls-4" d="M16.63,36.67a17.21,17.21,0,0,1-3.5,1,17.39,17.39,0,0,0,1.75,3.09,17.94,17.94,0,0,0,3.49-.95,16.48,16.48,0,0,1-1.75-3.15"/><path class="cls-4" d="M38.41,6.64A8.21,8.21,0,0,0,31.33,4.1,13.13,13.13,0,0,0,30,4.25a17.37,17.37,0,0,0-3.37.92,26.49,26.49,0,0,0-4.15,2A37,37,0,0,1,26,9.52a25.36,25.36,0,0,1,2.45-1.13,17.22,17.22,0,0,1,3.42-1,7,7,0,0,1,5.09.7,7.18,7.18,0,0,1,.76,5.06A17.33,17.33,0,0,1,40.81,15,12.65,12.65,0,0,0,41,13.23a7.83,7.83,0,0,0-2.56-6.59"/><path class="cls-4" d="M36.67,16.71a24.57,24.57,0,0,1-1.12,2.39q-.45.85-1,1.73c-.34.56-.71,1.12-1.11,1.69a42,42,0,0,1-2.67,3.4q-1.11,1.28-2.39,2.56t-2.49,2.32a42.08,42.08,0,0,0,4.33-.52q1-.18,2-.41,1.13-1.2,2.14-2.42Q35,26.7,35.54,26a37.34,37.34,0,0,0,2.33-3.44,26.48,26.48,0,0,0,2-4,17.15,17.15,0,0,0-3.18-1.77"/><path class="cls-4" d="M14.81,14.81q-1,.19-2,.42-1.11,1.19-2.11,2.4-.59.73-1.14,1.45a37,37,0,0,0-2.29,3.42,27,27,0,0,0-2,4.15,17.27,17.27,0,0,0,3.11,1.72A25.75,25.75,0,0,1,9.51,25.9q.44-.83,1-1.68t1.14-1.74a41.29,41.29,0,0,1,2.67-3.42q1.06-1.22,2.27-2.44t2.53-2.35a41.12,41.12,0,0,0-4.27.53"/><path class="cls-3" d="M41.79,15.75c-.31-.27-.63-.53-1-.78a17.33,17.33,0,0,0-3.14-1.79,26.57,26.57,0,0,0-4.36-1.48,36.87,36.87,0,0,1,.81,4.08,25.41,25.41,0,0,1,2.54.94,17.15,17.15,0,0,1,3.18,1.77,6.94,6.94,0,0,1,3,4.06,7.16,7.16,0,0,1-3,4.1,17.25,17.25,0,0,1,.95,3.49A12.65,12.65,0,0,0,42.15,29,7.84,7.84,0,0,0,45,22.55a8.21,8.21,0,0,0-3.21-6.8"/><path class="cls-3" d="M10.88,29.31a25.27,25.27,0,0,1-2.53-.93,17.27,17.27,0,0,1-3.11-1.72,7.26,7.26,0,0,1-3.17-4.13,7,7,0,0,1,3.18-4.16A18.06,18.06,0,0,1,4.32,15c-.37.26-.71.53-1,.82C1.2,17.64,0,19.4,0,22.55a7.16,7.16,0,0,0,2.46,5.94,12.71,12.71,0,0,0,1.84,1.6,18,18,0,0,0,3,1.74,26.78,26.78,0,0,0,4.32,1.51,37.46,37.46,0,0,1-.78-4"/><path class="cls-3" d="M22.55,11.58q-.83-.58-1.66-1.09-1.7.05-3.32.22-.93.09-1.83.22a36.89,36.89,0,0,0-4,.81,27,27,0,0,0-4.29,1.49,17.38,17.38,0,0,0,1,3.41,25.76,25.76,0,0,1,2.5-.91q.9-.28,1.88-.51t2-.42a41.12,41.12,0,0,1,4.27-.53c1.1-.08,2.23-.13,3.4-.13s2.39,0,3.53.14a41.24,41.24,0,0,0-3.46-2.7"/><path class="cls-3" d="M36.68,28.42a24.55,24.55,0,0,1-2.54.92q-.92.28-1.91.52t-2,.41a42.08,42.08,0,0,1-4.33.52c-1.11.08-2.25.12-3.43.12s-2.25,0-3.32-.12a42,42,0,0,0,3.36,2.64c.6.42,1.19.8,1.77,1.16q1.58-.05,3.09-.19,1-.09,1.89-.22a37.42,37.42,0,0,0,4.08-.78,26.53,26.53,0,0,0,4.32-1.47,17,17,0,0,0-1-3.5"/><path class="cls-2" d="M25.93,35.53q-.81-.43-1.64-.94c-.58-.36-1.18-.75-1.77-1.16a42,42,0,0,1-3.36-2.64q-1.29-1.11-2.57-2.39t-2.32-2.49a42.06,42.06,0,0,0,.52,4.34q.18,1,.41,2,1.22,1.15,2.46,2.17.72.59,1.43,1.14a37.45,37.45,0,0,0,3.4,2.3,26.59,26.59,0,0,0,4.1,2,17.15,17.15,0,0,0,1.77-3.18,24.62,24.62,0,0,1-2.43-1.14"/><path class="cls-2" d="M30.26,14.83q-.19-1.06-.43-2-1.17-1.1-2.37-2.08-.75-.62-1.51-1.19a37,37,0,0,0-3.46-2.31,26.91,26.91,0,0,0-4.08-2,17.29,17.29,0,0,0-1.72,3.11,25.76,25.76,0,0,1,2.44,1.14c.58.31,1.17.64,1.77,1s1.1.7,1.66,1.09A41.24,41.24,0,0,1,26,14.28q1.22,1.06,2.43,2.26t2.35,2.53a41.13,41.13,0,0,0-.53-4.25"/></g></g></svg>