<?xml version="1.0" encoding="UTF-8" standalone="no"?>
<svg width="80px" height="80px" viewBox="0 0 80 80" version="1.1" xmlns="http://www.w3.org/2000/svg" xmlns:xlink="http://www.w3.org/1999/xlink">
    <!-- Generator: Sketch 39.1 (31720) - http://www.bohemiancoding.com/sketch -->
    <title>coupleme</title>
    <desc>Created with Sketch.</desc>
    <defs>
        <linearGradient x1="50%" y1="0%" x2="50%" y2="100%" id="linearGradient-1">
            <stop stop-color="#5CBAD4" offset="0%"></stop>
            <stop stop-color="#3C9EC1" offset="100%"></stop>
        </linearGradient>
    </defs>
    <g id="icons" stroke="none" stroke-width="1" fill="none" fill-rule="evenodd">
        <g id="coupleme" fill="url(#linearGradient-1)">
            <path d="M32.1932933,11.2708105 C34.3082265,10.9718214 36.4099289,10.614469 38.5259749,10.3948641 C40.1783282,10.2233597 41.8509603,10.1229548 43.5102381,10.164378 C49.3620395,10.3106575 54.9670326,11.5317149 60.1411008,14.3596218 C65.5320534,17.3061104 69.624172,21.463146 71.8465582,27.2876204 C73.0686047,30.4905619 73.4994061,33.8253159 73.1738321,37.2222665 C72.7032149,42.1318443 70.8007149,46.4905553 67.7848578,50.3709827 C63.5797219,55.7819669 58.109385,59.4348758 51.7503658,61.8309922 C48.196007,63.1701365 44.5280126,64.0303792 40.7373561,64.3586736 C40.513918,64.3779632 40.2542501,64.5737033 40.1045083,64.7615297 C37.68428,67.7977893 35.2783952,70.8455484 32.8709029,73.8919473 C31.1225961,76.1040704 28.9476921,77.8283888 26.5071849,79.1818768 C24.9870149,80.0250555 23.3128989,80.223145 21.6392775,79.4645438 C20.3716036,78.8900595 20.0569109,77.6753084 20.6219977,76.4533855 C21.8548019,73.7880801 23.2469927,71.1952344 24.4423306,68.513978 C25.4859482,66.1730102 26.3721576,63.7603246 27.2869304,61.3637136 C28.9042904,57.126181 30.1897701,52.7865123 31.1760135,48.3595458 C31.9844462,44.7309962 32.5547263,41.0663404 32.9729153,37.3700298 C33.4673971,32.9988301 33.5242767,28.6169963 33.4071789,24.2359044 C33.33373,21.4884945 33.0063011,18.7467726 32.7546706,16.0059162 C32.6143263,14.4782035 32.3960816,12.9576625 32.1932933,11.2708105 Z M29.7112393,26.3729093 C29.5831365,29.1520976 29.5590245,31.8729225 29.3057864,34.5723557 C29.0301675,37.5088285 28.5862591,40.4321943 28.1349316,43.3487593 C27.5315129,47.2482291 26.5356247,51.0559495 25.2937939,54.8019679 C25.1339127,55.2844556 24.9259311,55.3429427 24.4957479,55.2483494 C18.6631126,53.9649718 13.6912144,51.2278249 9.92875041,46.5174494 C7.97468773,44.0711306 6.63096824,41.2946627 6.18409217,38.1764223 C5.69183604,34.7422527 6.18446312,31.426541 7.69115513,28.2698451 C10.1246142,23.1714516 14.0551204,19.5532887 18.9065821,16.8370389 C19.7669484,16.3552932 20.6720765,15.9529316 21.527373,15.4630249 C21.7446285,15.3385079 21.977835,15.0243098 21.9877271,14.7882593 C22.0982714,12.1513937 22.0139412,9.51836136 21.6016875,6.90770988 C21.317042,5.10474918 20.9730439,3.31118598 20.654518,1.51366594 C20.5494143,0.919768388 20.9705709,0.274802816 21.5862311,0.0914278267 C22.5829848,-0.205582776 23.7803011,0.229670064 24.3129912,1.27885198 C25.1107899,2.85021365 25.8305645,4.46683173 26.4882662,6.10236847 C27.5484531,8.73849213 28.3303007,11.4661178 28.7712415,14.2747351 C29.031775,15.9345076 29.2125533,17.6113439 29.3342263,19.2873146 C29.5068436,21.666367 29.5919157,24.0518494 29.7112393,26.3729093 Z" id="Combined-Shape"></path>
        </g>
    </g>
</svg>