<svg xmlns="http://www.w3.org/2000/svg" viewBox="0 0 15.95 15.95"><defs><style>.cls-1{fill:#6b7583;}</style></defs><title>cube icon</title><g id="Layer_2" data-name="Layer 2"><g id="Layer_1-2" data-name="Layer 1"><path class="cls-1" d="M15.95,11a1.22,1.22,0,0,1-.64,1.07L8.56,15.79a1.19,1.19,0,0,1-1.17,0L.64,12.11A1.22,1.22,0,0,1,0,11V3.68A1.22,1.22,0,0,1,.8,2.53L7.55.08a1.2,1.2,0,0,1,.84,0l6.75,2.45a1.22,1.22,0,0,1,.8,1.15ZM14.66,3.66,8,1.23,1.28,3.66,8,6.09ZM14.72,11V4.94L8.59,7.18v7.21Z"/></g></g></svg>