<?xml version="1.0" encoding="UTF-8" standalone="no"?>
<svg width="80px" height="80px" viewBox="0 0 80 80" version="1.1" xmlns="http://www.w3.org/2000/svg" xmlns:xlink="http://www.w3.org/1999/xlink">
    <!-- Generator: Sketch 3.8.2 (29753) - http://www.bohemiancoding.com/sketch -->
    <title>dingtalk</title>
    <desc>Created with Sketch.</desc>
    <defs>
        <linearGradient x1="75.4064941%" y1="6.02530757%" x2="24.7429606%" y2="92.7560085%" id="linearGradient-1">
            <stop stop-color="#008CEE" offset="0%"></stop>
            <stop stop-color="#38ACFF" offset="100%"></stop>
        </linearGradient>
    </defs>
    <g id="icons" stroke="none" stroke-width="1" fill="none" fill-rule="evenodd">
        <g id="dingtalk">
            <circle id="Oval-127" fill="url(#linearGradient-1)" cx="40" cy="40" r="40"></circle>
            <path d="M45.53835,70.9787234 C45.6764161,70.3855716 45.8059949,69.7903069 45.9538654,69.1995594 C46.6310993,66.49493 47.3127963,63.7913935 47.9944933,61.0877842 C48.1539974,60.4552152 48.3197206,59.8241763 48.4970043,59.1362339 L42.9780169,59.1362339 C43.6226914,56.4587812 44.2525862,53.8425307 44.8972607,51.1650052 C44.4022127,51.2892312 43.9468212,51.3897048 43.4996245,51.5183024 C42.1972517,51.8928748 40.8700754,52.2043505 39.6050178,52.6791051 C38.0472922,53.2635866 36.5907566,53.0192876 35.1663413,52.3666093 C32.8590928,51.309559 30.9184843,49.7628179 29.348174,47.7765135 C29.0506769,47.4001925 28.8324929,46.9312667 28.6916464,46.4705012 C28.5250451,45.9255097 28.8104696,45.4990612 29.3851965,45.3661649 C30.0966724,45.2016474 30.819782,45.0818659 31.5423062,44.9708275 C33.1155432,44.7289329 34.6902435,44.4960729 36.2667731,44.276182 C37.6311183,44.085945 38.9988291,43.9194603 40.364784,43.7407351 C41.0028003,43.6572378 41.6403045,43.5695146 42.1370353,43.5026292 C41.1958881,43.5026292 40.116821,43.5030664 39.0376808,43.5025564 C36.7273594,43.5013906 34.4165258,43.527183 32.1068628,43.4868915 C30.9335567,43.4664179 29.7606164,43.3449606 28.5908954,43.2337765 C27.8701272,43.1652154 27.2756453,42.7737396 26.7241124,42.3378921 C25.6844092,41.5161791 24.8743041,40.4875441 24.1337076,39.4022242 C23.0530309,37.8184703 22.1666858,36.1271753 21.3862133,34.3812354 C21.2505617,34.0777743 21.1813457,33.7270271 21.1632734,33.3936934 C21.1419818,33.001489 21.3870181,32.7848039 21.7881928,32.7047309 C22.3853088,32.5855323 22.9411586,32.7775179 23.5005203,32.9238933 C25.6695563,33.4916899 27.8257148,34.1125284 30.0068234,34.6293231 C32.4523574,35.2087773 34.9158174,35.7161002 37.3791311,36.2174486 C38.7901568,36.504662 40.2163282,36.717777 41.6358413,36.963096 C41.6766685,36.9701634 41.719837,36.9639703 41.7675419,36.9271761 C40.7724706,36.6758098 39.7702289,36.4496529 38.7837913,36.1683411 C36.0562716,35.3904168 33.3265568,34.6180298 30.6145485,33.7888122 C28.4011002,33.1120173 26.2351373,32.2935101 24.1537554,31.2764599 C23.4511326,30.9331444 22.7786546,30.5194463 22.1238099,30.0904477 C21.1110322,29.4268405 20.5649868,28.3910652 20.0624026,27.3424667 C19.1726918,25.4859256 18.5640886,23.5348125 18.255836,21.5025335 C18.1085508,20.5313121 18.0599679,19.5436972 18.0031903,18.5614011 C17.9850449,18.2478853 18.0462125,17.9162274 18.1381103,17.6129848 C18.3025897,17.0703249 18.8032716,16.8623101 19.3276595,17.0929114 C21.6496145,18.1142604 23.959058,19.1643161 26.291988,20.1599456 C29.8585138,21.6820601 33.430015,23.1937557 37.0199542,24.6599138 C39.3773952,25.6226835 41.7574449,26.5347427 44.1519815,27.4022846 C47.3435264,28.55857 50.5639723,29.6357296 53.7619559,30.7746743 C55.2299787,31.2975164 56.6649301,31.9069159 58.0166906,32.6923448 C58.8027237,33.149103 59.54193,33.6637848 60.1402898,34.3584303 C61.0142697,35.373149 61.2538185,36.5323488 60.7111388,37.7416761 C60.009394,39.305685 59.2453841,40.8467431 58.4210114,42.3502783 C57.3585533,44.288131 56.2214648,46.1859836 55.0946198,48.0882078 C54.0991094,49.7687196 53.0734543,51.4313807 52.0617741,53.1023478 C51.997753,53.2081403 51.9392194,53.3173571 51.8483459,53.4774301 L58.8379171,53.4774301 C54.3912653,59.3575091 49.9972206,65.1681527 45.603176,70.9787234 L45.53835,70.9787234 Z" id="Fill-1" fill="#FFFFFF"></path>
        </g>
    </g>
</svg>