<?xml version="1.0" encoding="UTF-8" standalone="no"?>
<svg width="80px" height="80px" viewBox="0 0 80 80" version="1.1" xmlns="http://www.w3.org/2000/svg" xmlns:xlink="http://www.w3.org/1999/xlink">
    <!-- Generator: Sketch 3.7.2 (28276) - http://www.bohemiancoding.com/sketch -->
    <title>flowdock</title>
    <desc>Created with Sketch.</desc>
    <defs>
        <linearGradient x1="84.4540276%" y1="7.64160156%" x2="17.1022441%" y2="89.407959%" id="linearGradient-1">
            <stop stop-color="#FDB92F" offset="0%"></stop>
            <stop stop-color="#F58220" offset="100%"></stop>
        </linearGradient>
    </defs>
    <g id="icons" stroke="none" stroke-width="1" fill="none" fill-rule="evenodd">
        <g id="flowdock" fill="url(#linearGradient-1)">
            <path d="M38.6637975,15.4205477 C28.1705643,17.0010878 20.2817377,22.2350674 15.3262024,31.5003061 C10.7436472,40.0683046 10.5856577,48.9515293 14.2316763,57.9158459 C14.2863112,57.8160405 14.2808262,57.7146217 14.2593164,57.6167522 C13.3464405,53.461489 13.3905356,49.3194544 14.3165324,45.1644064 C16.8339319,33.869503 26.5746447,24.9607892 38.1117485,23.4592976 C38.5312971,23.4046628 38.6757354,23.2532338 38.6716485,22.8180905 C38.6505689,20.6324798 38.6630446,18.4465464 38.6637975,16.2607205 C38.663905,16.0321789 38.6637975,15.8036373 38.6637975,15.4205477 L38.6637975,15.4205477 Z M64.9061834,11.747857 C51.9455611,0.805068961 30.7348551,0.00684029084 16.5180605,13.9442226 C2.63316204,27.5562692 3.55786834,46.6855795 10.274626,57.718386 C10.1997719,57.4297244 10.1714865,57.2776502 10.1212611,57.1332119 C8.22259107,51.6653132 7.71754097,46.0665274 8.65644373,40.3605153 C9.76366067,33.6316046 12.6000504,27.7045793 17.2507918,22.7096811 C23.9623871,15.5015321 32.3169008,11.8892839 42.1370924,11.768829 C49.5196859,11.6782728 56.9042152,11.7489324 64.2879918,11.747857 L64.9061834,11.747857 L64.9061834,11.747857 Z M38.6208854,26.9831406 C28.9979387,27.9064488 17.3038134,36.7564408 17.1134517,51.2746952 C16.9256712,65.5995766 28.3147875,75.1001325 38.6208854,76.1479824 L38.6208854,26.9831406 Z M79.2239665,25.6925526 L53.7802395,25.6925526 L53.7802395,39.4876476 C54.0329796,39.5015214 54.2914199,39.528086 54.5498601,39.5281936 C61.7903814,39.5304521 69.0309026,39.5299144 76.2714239,39.530237 C77.0095326,39.5303446 77.0106081,39.5317427 77.0109308,40.2494172 C77.0127591,44.3894083 77.0141573,48.5293995 77.0151252,52.6693907 C77.0153403,53.3749121 77.0141573,53.3769555 76.3174548,53.3773857 C69.0411198,53.3825481 61.7647847,53.3869576 54.4885572,53.3914746 C54.2743196,53.3916897 54.060082,53.3915822 53.7833584,53.3915822 L53.7833584,78.2067929 C41.7945488,82.1893323 24.305791,80.0530866 12.0347729,66.55644 C0.735352409,54.1284004 -1.27054397,35.0113507 7.28723742,20.160017 C16.0599017,4.93591846 33.1744966,-2.62370067 50.231015,0.822706997 C58.8567673,2.56564607 65.9725317,6.95063386 71.8191104,13.4635861 C75.2522896,17.287921 79.0033835,23.4758602 79.2239665,25.6925526 L79.2239665,25.6925526 Z" id="Fill-1"></path>
        </g>
    </g>
</svg>