<?xml version="1.0" encoding="UTF-8" standalone="no"?>
<svg width="80px" height="80px" viewBox="0 0 80 80" version="1.1" xmlns="http://www.w3.org/2000/svg" xmlns:xlink="http://www.w3.org/1999/xlink">
    <!-- Generator: Sketch 3.7.2 (28276) - http://www.bohemiancoding.com/sketch -->
    <title>gitter</title>
    <desc>Created with Sketch.</desc>
    <defs>
        <linearGradient x1="50%" y1="0%" x2="50%" y2="100%" id="linearGradient-1">
            <stop stop-color="#FB0766" offset="0%"></stop>
            <stop stop-color="#C50948" offset="100%"></stop>
        </linearGradient>
    </defs>
    <g id="icons" stroke="none" stroke-width="1" fill="none" fill-rule="evenodd">
        <g id="gitter">
            <g id="Group">
                <g>
                    <g id="Page-1">
                        <g id="Group">
                            <polygon id="Shape" fill="url(#linearGradient-1)" points="0 0 80 0 80 80 0 80 0 0"></polygon>
                            <path d="M26.223125,19.6478125 L30.1371875,19.6478125 L30.1371875,45.479375 L26.223125,45.479375 L26.223125,19.6478125 L26.223125,19.6478125 L26.223125,19.6478125 Z M50.0196875,25.91 L53.9334375,25.91 L53.9334375,45.479375 L50.0196875,45.479375 L50.0196875,25.91 L50.0196875,25.91 L50.0196875,25.91 Z M34.2075,25.91 L38.12125,25.91 L38.12125,60.430625 L34.2075,60.430625 L34.2075,25.91 L34.2075,25.91 L34.2075,25.91 Z M42.0353125,25.91 L45.949375,25.91 L45.949375,60.430625 L42.0353125,60.430625 L42.0353125,25.91 L42.0353125,25.91 L42.0353125,25.91 Z" id="Shape" fill="#FFFFFF"></path>
                        </g>
                    </g>
                </g>
            </g>
        </g>
    </g>
</svg>