<?xml version="1.0"?>
<svg width="1277" height="1277" xmlns="http://www.w3.org/2000/svg" xmlns:svg="http://www.w3.org/2000/svg">
 <g>
  <title>Layer 1</title>
  <g id="a">
   <line id="svg_18" fill="none" y2="1114.00803" x2="1131.931001" y1="1114.00803" x1="1131.648001"/>
   <line id="svg_19" fill="none" y2="1114.00803" x2="1131.648001" y1="1114.00803" x1="1131.931001"/>
   <path id="svg_20" fill="#E75A4D" d="m1172.353,190.000025c57.543,0 104.627,47.083 104.627,104.626l0,30.331l-145.36,103.833l-494.873,340.894l-494.873,-344.352l0,654.067l0,34.609l-37.247,0c-57.543,0 -104.627,-47.082 -104.627,-104.625l0,-714.728c0,-57.544 47.084,-104.627 104.627,-104.627l532.12,394.525l535.577,-394.525l0.029,-0.028z"/>
   <linearGradient id="svg_21" transform="translate(0,10) translate(0,-5) translate(0,5) translate(0,5) translate(0,3) translate(0,-0.041229248046875) translate(0,4.213991641998291) translate(0,-4.213991641998291) translate(0,4.213991641998291) translate(0,-4.213991641998291) translate(0,-4.213991641998291) translate(0,4.213991641998291) translate(0,4.213991641998291) translate(0,4.213991641998291) translate(-6.005217552185059,0) translate(-4.213991641998291,0) translate(4.213991641998291,0) translate(4.213991641998291,0) translate(4.213991641998291,0) translate(4.213991641998291,0) translate(-4.213991641998291,0) translate(-42.13991928100586,0) translate(-4.213991641998291,0) translate(-4.213991641998291,0) translate(-4.213991641998291,0) translate(-4.213991641998291,0) translate(-438.2551574707031,67.42386627197266) translate(494.8282775878906,96.18938446044922) translate(325.81939697265625,-104.0087890625) translate(627.884765625,-847.0123901367188) translate(-960.7901611328125,943.9342041015625) " y2="0.500087" x2="0.818862" y1="0.500087" x1="0.179921">
    <stop id="svg_22" stop-color="#F8F6EF" offset="0"/>
    <stop id="svg_23" stop-color="#E7E4D6" offset="1"/>
   </linearGradient>
   <polygon id="svg_24" fill="url(#SVGID_1_)" points="104.62704467773438,190 636.7471313476562,584.5249633789062 1172.35302734375,190 "/>
   <polygon id="svg_25" fill="#E7E4D7" points="141.87399291992188,425.33209228515625 141.87399291992188,1114.008056640625 1131.6480712890625,1114.008056640625 1131.6480712890625,428.78997802734375 636.7471313476562,769.68408203125 "/>
   <polygon id="svg_26" fill="#B8B7AE" points="141.87399291992188,1114.008056640625 636.7471313476562,769.68408203125 634.5071411132812,768.09814453125 141.87399291992188,1106.43994140625 "/>
   <polygon id="svg_27" fill="#B7B6AD" points="1131.6480712890625,428.78997802734375 1131.9310302734375,1114.008056640625 636.7471313476562,769.68408203125 "/>
   <path id="svg_28" fill="#B2392F" d="m1276.98,324.957025l0.17,684.51c-2.494,76.082 -35.461,103.238 -145.219,104.514l-0.283,-685.219l145.36,-103.833l-0.028,0.028z"/>
   <linearGradient id="svg_29" transform="translate(0,10) translate(0,-5) translate(0,5) translate(0,5) translate(0,3) translate(0,-0.041229248046875) translate(0,4.213991641998291) translate(0,-4.213991641998291) translate(0,4.213991641998291) translate(0,-4.213991641998291) translate(0,-4.213991641998291) translate(0,4.213991641998291) translate(0,4.213991641998291) translate(0,4.213991641998291) translate(-6.005217552185059,0) translate(-4.213991641998291,0) translate(4.213991641998291,0) translate(4.213991641998291,0) translate(4.213991641998291,0) translate(4.213991641998291,0) translate(-4.213991641998291,0) translate(-42.13991928100586,0) translate(-4.213991641998291,0) translate(-4.213991641998291,0) translate(-4.213991641998291,0) translate(-4.213991641998291,0) translate(-438.2551574707031,67.42386627197266) translate(494.8282775878906,96.18938446044922) translate(325.81939697265625,-104.0087890625) translate(627.884765625,-847.0123901367188) translate(-960.7901611328125,943.9342041015625) " y2="0.500087" x2="0.818862" y1="0.500087" x1="0.179921">
    <stop id="svg_30" stop-color="#F8F6EF" offset="0"/>
    <stop id="svg_31" stop-color="#E7E4D6" offset="1"/>
   </linearGradient>
   <polygon id="svg_32" fill="url(#SVGID_2_)" points="104.62704467773438,190 636.7471313476562,584.5249633789062 1172.35302734375,190 "/>
   <linearGradient id="svg_33" transform="translate(0,10) translate(0,-5) translate(0,5) translate(0,5) translate(0,3) translate(0,-0.041229248046875) translate(0,4.213991641998291) translate(0,-4.213991641998291) translate(0,4.213991641998291) translate(0,-4.213991641998291) translate(0,-4.213991641998291) translate(0,4.213991641998291) translate(0,4.213991641998291) translate(0,4.213991641998291) translate(-6.005217552185059,0) translate(-4.213991641998291,0) translate(4.213991641998291,0) translate(4.213991641998291,0) translate(4.213991641998291,0) translate(4.213991641998291,0) translate(-4.213991641998291,0) translate(-42.13991928100586,0) translate(-4.213991641998291,0) translate(-4.213991641998291,0) translate(-4.213991641998291,0) translate(-4.213991641998291,0) translate(-438.2551574707031,67.42386627197266) translate(494.8282775878906,96.18938446044922) translate(325.81939697265625,-104.0087890625) translate(627.884765625,-847.0123901367188) translate(-960.7901611328125,943.9342041015625) " y2="0.500087" x2="0.818862" y1="0.500087" x1="0.179921">
    <stop id="svg_34" stop-color="#F8F6EF" offset="0"/>
    <stop id="svg_35" stop-color="#E7E4D6" offset="1"/>
   </linearGradient>
   <polygon id="svg_36" fill="url(#SVGID_3_)" points="104.62704467773438,190 636.7471313476562,584.5249633789062 1172.35302734375,190 "/>
   <linearGradient id="svg_37" transform="translate(0,10) translate(0,-5) translate(0,5) translate(0,5) translate(0,3) translate(0,-0.041229248046875) translate(0,4.213991641998291) translate(0,-4.213991641998291) translate(0,4.213991641998291) translate(0,-4.213991641998291) translate(0,-4.213991641998291) translate(0,4.213991641998291) translate(0,4.213991641998291) translate(0,4.213991641998291) translate(-6.005217552185059,0) translate(-4.213991641998291,0) translate(4.213991641998291,0) translate(4.213991641998291,0) translate(4.213991641998291,0) translate(4.213991641998291,0) translate(-4.213991641998291,0) translate(-42.13991928100586,0) translate(-4.213991641998291,0) translate(-4.213991641998291,0) translate(-4.213991641998291,0) translate(-4.213991641998291,0) translate(-438.2551574707031,67.42386627197266) translate(494.8282775878906,96.18938446044922) translate(325.81939697265625,-104.0087890625) translate(627.884765625,-847.0123901367188) translate(-960.7901611328125,943.9342041015625) " y2="0.500087" x2="0.818862" y1="0.500087" x1="0.179921">
    <stop id="svg_38" stop-color="#F8F6EF" offset="0"/>
    <stop id="svg_39" stop-color="#E7E4D6" offset="1"/>
   </linearGradient>
   <polygon id="svg_40" fill="url(#SVGID_4_)" points="104.62704467773438,190 636.7471313476562,584.5249633789062 1172.35302734375,190 "/>
   <linearGradient id="svg_41" transform="translate(0,10) translate(0,-5) translate(0,5) translate(0,5) translate(0,3) translate(0,-0.041229248046875) translate(0,4.213991641998291) translate(0,-4.213991641998291) translate(0,4.213991641998291) translate(0,-4.213991641998291) translate(0,-4.213991641998291) translate(0,4.213991641998291) translate(0,4.213991641998291) translate(0,4.213991641998291) translate(-6.005217552185059,0) translate(-4.213991641998291,0) translate(4.213991641998291,0) translate(4.213991641998291,0) translate(4.213991641998291,0) translate(4.213991641998291,0) translate(-4.213991641998291,0) translate(-42.13991928100586,0) translate(-4.213991641998291,0) translate(-4.213991641998291,0) translate(-4.213991641998291,0) translate(-4.213991641998291,0) translate(-438.2551574707031,67.42386627197266) translate(494.8282775878906,96.18938446044922) translate(325.81939697265625,-104.0087890625) translate(627.884765625,-847.0123901367188) translate(-960.7901611328125,943.9342041015625) " y2="0.500087" x2="0.818862" y1="0.500087" x1="0.179921">
    <stop id="svg_42" stop-color="#F8F6EF" offset="0"/>
    <stop id="svg_43" stop-color="#E7E4D6" offset="1"/>
   </linearGradient>
   <polygon id="svg_44" fill="url(#SVGID_5_)" points="104.62704467773438,190 636.7471313476562,584.5249633789062 1172.35302734375,190 "/>
   <linearGradient id="svg_45" transform="translate(0,10) translate(0,-5) translate(0,5) translate(0,5) translate(0,3) translate(0,-0.041229248046875) translate(0,4.213991641998291) translate(0,-4.213991641998291) translate(0,4.213991641998291) translate(0,-4.213991641998291) translate(0,-4.213991641998291) translate(0,4.213991641998291) translate(0,4.213991641998291) translate(0,4.213991641998291) translate(-6.005217552185059,0) translate(-4.213991641998291,0) translate(4.213991641998291,0) translate(4.213991641998291,0) translate(4.213991641998291,0) translate(4.213991641998291,0) translate(-4.213991641998291,0) translate(-42.13991928100586,0) translate(-4.213991641998291,0) translate(-4.213991641998291,0) translate(-4.213991641998291,0) translate(-4.213991641998291,0) translate(-438.2551574707031,67.42386627197266) translate(494.8282775878906,96.18938446044922) translate(325.81939697265625,-104.0087890625) translate(627.884765625,-847.0123901367188) translate(-960.7901611328125,943.9342041015625) " y2="0.500087" x2="0.818862" y1="0.500087" x1="0.179921">
    <stop id="svg_46" stop-color="#F8F6EF" offset="0"/>
    <stop id="svg_47" stop-color="#E7E4D6" offset="1"/>
   </linearGradient>
   <polygon id="svg_48" fill="url(#SVGID_6_)" points="104.62704467773438,190 636.7471313476562,584.5249633789062 1172.35302734375,190 "/>
   <linearGradient id="svg_49" transform="translate(0,10) translate(0,-5) translate(0,5) translate(0,5) translate(0,3) translate(0,-0.041229248046875) translate(0,4.213991641998291) translate(0,-4.213991641998291) translate(0,4.213991641998291) translate(0,-4.213991641998291) translate(0,-4.213991641998291) translate(0,4.213991641998291) translate(0,4.213991641998291) translate(0,4.213991641998291) translate(-6.005217552185059,0) translate(-4.213991641998291,0) translate(4.213991641998291,0) translate(4.213991641998291,0) translate(4.213991641998291,0) translate(4.213991641998291,0) translate(-4.213991641998291,0) translate(-42.13991928100586,0) translate(-4.213991641998291,0) translate(-4.213991641998291,0) translate(-4.213991641998291,0) translate(-4.213991641998291,0) translate(-438.2551574707031,67.42386627197266) translate(494.8282775878906,96.18938446044922) translate(325.81939697265625,-104.0087890625) translate(627.884765625,-847.0123901367188) translate(-960.7901611328125,943.9342041015625) " y2="0.500087" x2="0.818862" y1="0.500087" x1="0.179921">
    <stop id="svg_50" stop-color="#F8F6EF" offset="0"/>
    <stop id="svg_51" stop-color="#E7E4D6" offset="1"/>
   </linearGradient>
   <polygon id="svg_52" fill="url(#SVGID_7_)" points="104.62704467773438,190 636.7471313476562,584.5249633789062 1172.35302734375,190 "/>
   <linearGradient id="svg_53" transform="translate(0,10) translate(0,-5) translate(0,5) translate(0,5) translate(0,3) translate(0,-0.041229248046875) translate(0,4.213991641998291) translate(0,-4.213991641998291) translate(0,4.213991641998291) translate(0,-4.213991641998291) translate(0,-4.213991641998291) translate(0,4.213991641998291) translate(0,4.213991641998291) translate(0,4.213991641998291) translate(-6.005217552185059,0) translate(-4.213991641998291,0) translate(4.213991641998291,0) translate(4.213991641998291,0) translate(4.213991641998291,0) translate(4.213991641998291,0) translate(-4.213991641998291,0) translate(-42.13991928100586,0) translate(-4.213991641998291,0) translate(-4.213991641998291,0) translate(-4.213991641998291,0) translate(-4.213991641998291,0) translate(-438.2551574707031,67.42386627197266) translate(494.8282775878906,96.18938446044922) translate(325.81939697265625,-104.0087890625) translate(627.884765625,-847.0123901367188) translate(-960.7901611328125,943.9342041015625) " y2="0.500087" x2="0.818862" y1="0.500087" x1="0.179921">
    <stop id="svg_54" stop-color="#F8F6EF" offset="0"/>
    <stop id="svg_55" stop-color="#E7E4D6" offset="1"/>
   </linearGradient>
   <polygon id="svg_56" fill="url(#SVGID_8_)" points="104.62704467773438,190 636.7471313476562,584.5249633789062 1172.35302734375,190 "/>
   <polygon id="svg_57" fill="#F7F5ED" points="104.62704467773438,190 636.7471313476562,584.5249633789062 1172.35302734375,190 "/>
  </g>
 </g>
</svg>