<?xml version="1.0" encoding="UTF-8" standalone="no"?>
<svg width="80px" height="80px" viewBox="0 0 80 80" version="1.1" xmlns="http://www.w3.org/2000/svg" xmlns:xlink="http://www.w3.org/1999/xlink">
    <!-- Generator: Sketch 39.1 (31720) - http://www.bohemiancoding.com/sketch -->
    <title>hibox</title>
    <desc>Created with Sketch.</desc>
    <defs>
        <linearGradient x1="50.0000909%" y1="99.9999096%" x2="50.0000909%" y2="0.000176474229%" id="linearGradient-1">
            <stop stop-color="#00C99A" offset="0%"></stop>
            <stop stop-color="#0BD7A8" offset="100%"></stop>
        </linearGradient>
    </defs>
    <g id="icons" stroke="none" stroke-width="1" fill="none" fill-rule="evenodd">
        <g id="hibox">
            <g id="hibox_logo_gradient">
                <g id="Layer_1">
                    <g id="Group">
                        <path d="M79.4223827,68.946426 C79.4223827,75.0012996 74.513935,79.9096029 68.4592058,79.9096029 L10.9631769,79.9096029 C4.90844765,79.9096029 0,75.0012996 0,68.946426 L0,10.9633213 C0,4.90859206 4.90844765,0 10.9631769,0 L68.4592058,0 C74.513935,0 79.4223827,4.90859206 79.4223827,10.9633213 L79.4223827,68.946426 L79.4223827,68.946426 Z" id="Shape" fill="url(#linearGradient-1)"></path>
                        <g opacity="0.1" transform="translate(11.552347, 11.263538)" id="Shape" fill="#31383F">
                            <g transform="translate(22.960289, 3.321300)">
                                <path d="M1.36851986,21.2626715 C-0.333429603,19.5605776 -0.332707581,16.801444 1.36851986,15.099639 L15.094296,1.37429603 C16.7958123,-0.326787004 19.5550903,-0.327220217 21.2574729,1.37429603 C22.9594224,3.0768231 22.9591336,5.83638989 21.2574729,7.53805054 L7.53212996,21.2628159 C5.83090253,22.9644765 3.07018051,22.9644765 1.36851986,21.2626715 L1.36851986,21.2626715 Z"></path>
                            </g>
                            <g transform="translate(3.321300, 26.425993)">
                                <path d="M1.28259928,17.8836101 C-0.419783394,16.1818051 -0.419205776,13.4220939 1.28274368,11.7204332 L11.6843321,1.31812274 C13.3865704,-0.383249097 16.1451264,-0.384548736 17.8485199,1.31812274 C19.5490253,3.02050542 19.5490253,5.7800722 17.8485199,7.48173285 L7.44534296,17.8836101 C5.74368231,19.5854152 2.98397112,19.5854152 1.28259928,17.8836101 L1.28259928,17.8836101 Z"></path>
                            </g>
                            <g transform="translate(12.563177, 12.563177)">
                                <path d="M1.29025271,40.9971119 C-0.411119134,39.2947292 -0.411841155,36.5355957 1.29111913,34.833935 L34.7418051,1.38310469 C36.4437545,-0.319711191 39.2023105,-0.319277978 40.9045487,1.38310469 C42.606787,3.08490975 42.606787,5.84389892 40.9045487,7.5465704 L7.45429603,40.9962455 C5.75162455,42.698917 2.99277978,42.698917 1.29025271,40.9971119 L1.29025271,40.9971119 Z"></path>
                            </g>
                            <g transform="translate(48.953069, 27.436823)">
                                <path d="M1.34527076,7.53198556 C0.534729242,6.72115523 0.0696028881,5.59581227 0.0696028881,4.4501083 C0.0688808664,3.30353791 0.534440433,2.17877256 1.34425993,1.36750903 C2.15523466,0.557256318 3.28043321,0.0915523466 4.42555957,0.0927075812 C5.57256318,0.0927075812 6.69833935,0.557256318 7.50787004,1.36750903 C8.31913357,2.17862816 8.78425993,3.3033935 8.78425993,4.4501083 C8.78425993,5.5968231 8.31768953,6.72115523 7.50787004,7.53169675 C6.69703971,8.34166065 5.57270758,8.80794224 4.42628159,8.80736462 C3.28057762,8.80736462 2.15566787,8.34137184 1.34527076,7.53198556 L1.34527076,7.53198556 Z"></path>
                            </g>
                            <g transform="translate(27.292419, 36.534296)">
                                <path d="M1.42036101,20.0183394 C-0.281444043,18.3153791 -0.282310469,15.5565343 1.41935018,13.8548736 L13.9978339,1.27783394 C15.699639,-0.423393502 18.458917,-0.423393502 20.1604332,1.27725632 C21.8625271,2.97963899 21.8631047,5.73877256 20.1604332,7.44101083 L7.58411552,20.0183394 C5.88187726,21.7197112 3.12231047,21.7197112 1.42036101,20.0183394 L1.42036101,20.0183394 Z"></path>
                            </g>
                            <g transform="translate(0.000000, 21.660650)">
                                <path d="M7.44837545,1.30151625 C8.25891697,2.11205776 8.72418773,3.23696751 8.72418773,4.38296029 C8.72418773,5.52924188 8.25891697,6.65400722 7.44851986,7.46555957 C6.63826715,8.27638989 5.5133574,8.74137184 4.36707581,8.74021661 C3.22021661,8.74021661 2.09545126,8.27638989 1.28548736,7.46555957 C0.474223827,6.65400722 0.00967509025,5.52938628 0.00967509025,4.38296029 C0.00967509025,3.23610108 0.475234657,2.11205776 1.28548736,1.30180505 C2.09588448,0.491841155 3.22093863,0.0257039711 4.366787,0.0258483755 C5.51350181,0.0258483755 6.63812274,0.491841155 7.44837545,1.30151625 L7.44837545,1.30151625 Z"></path>
                            </g>
                            <g transform="translate(8.953069, 0.000000)">
                                <path d="M20.0811552,1.37805054 C21.7828159,3.08086643 21.7828159,5.83971119 20.0811552,7.54166065 L7.5033935,20.1179783 C5.80187726,21.819639 3.04187726,21.8202166 1.34050542,20.1188448 C-0.361588448,18.4168953 -0.361588448,15.6573285 1.34050542,13.9550903 L13.9171119,1.37862816 C15.6193502,-0.3233213 18.3783394,-0.3233213 20.0811552,1.37805054 L20.0811552,1.37805054 Z"></path>
                            </g>
                        </g>
                        <g transform="translate(10.974729, 10.541516)" id="Shape" fill="#FFFFFF">
                            <path d="M24.4187726,24.5745848 C22.7166787,22.8722022 22.7175451,20.1130686 24.4187726,18.4112635 L38.1445487,4.68592058 C39.846065,2.98483755 42.6051986,2.98440433 44.3077256,4.68592058 C46.0095307,6.38844765 46.0092419,9.14801444 44.3077256,10.8496751 L30.5822383,24.5745848 C28.8811552,26.2761011 26.1202888,26.2761011 24.4187726,24.5745848 L24.4187726,24.5745848 Z"></path>
                            <path d="M4.69371841,44.3000722 C2.99148014,42.5982671 2.99191336,39.838556 4.69400722,38.1368953 L15.0954513,27.7345848 C16.7978339,26.0330686 19.5562455,26.0319134 21.259639,27.7345848 C22.9602888,29.4372563 22.9602888,32.1965343 21.259639,33.8981949 L10.8564621,44.3000722 C9.15494585,46.0018773 6.39509025,46.0018773 4.69371841,44.3000722 L4.69371841,44.3000722 Z"></path>
                            <path d="M13.9432491,53.5506137 C12.2418773,51.848231 12.2412996,49.0890975 13.9442599,47.3874368 L47.3949458,13.9366065 C49.0970397,12.2337906 51.8554513,12.2342238 53.5578339,13.9366065 C55.2599278,15.6384116 55.2599278,18.3974007 53.5578339,20.1000722 L20.1075812,53.5498917 C18.4046209,55.2525632 15.6457762,55.2525632 13.9432491,53.5506137 L13.9432491,53.5506137 Z"></path>
                            <path d="M50.3881588,34.9591336 C49.5777617,34.1483032 49.112491,33.0229603 49.112491,31.8772563 C49.111769,30.7308303 49.5774729,29.6059206 50.387148,28.794657 C51.1982671,27.9844043 52.3233213,27.5187004 53.4685921,27.5198556 C54.6154513,27.5198556 55.7413718,27.9844043 56.5507581,28.794657 C57.3620217,29.6057762 57.827148,30.7306859 57.827148,31.8772563 C57.827148,33.0239711 57.360722,34.1483032 56.5507581,34.958556 C55.7400722,35.7688087 54.6155957,36.2348014 53.4693141,36.2342238 C52.3234657,36.2342238 51.1987004,35.7686643 50.3881588,34.9591336 L50.3881588,34.9591336 Z"></path>
                            <path d="M28.8024549,56.5433935 C27.1007942,54.8404332 27.1000722,52.0812996 28.8015884,50.3793502 L41.3802166,37.8025993 C43.0821661,36.101083 45.8411552,36.101083 47.5428159,37.8024549 C49.2447653,39.5045487 49.2451986,42.2638267 47.5428159,43.9659206 L34.9664982,56.5435379 C33.2641155,58.2443321 30.5045487,58.2443321 28.8024549,56.5433935 L28.8024549,56.5433935 Z"></path>
                            <path d="M7.53833935,22.9526354 C8.34888087,23.7631769 8.81429603,24.888231 8.81429603,26.0340794 C8.81429603,27.1806498 8.34888087,28.3052708 7.53862816,29.1166787 C6.72837545,29.927509 5.6034657,30.392491 4.45718412,30.3914801 C3.31032491,30.3914801 2.18555957,29.927509 1.37559567,29.1166787 C0.56433213,28.3052708 0.0996389892,27.1807942 0.0996389892,26.0340794 C0.0996389892,24.8872202 0.56534296,23.7631769 1.37559567,22.9529242 C2.18599278,22.1431047 3.31104693,21.6768231 4.45689531,21.6771119 C5.6033213,21.6769675 6.72794224,22.1431047 7.53833935,22.9526354 L7.53833935,22.9526354 Z"></path>
                            <path d="M29.1243321,1.36866426 C30.8258484,3.07148014 30.8258484,5.83032491 29.1243321,7.53227437 L16.5465704,20.1084477 C14.8450542,21.8102527 12.0849097,21.8105415 10.3836823,20.1093141 C8.68158845,18.4072202 8.68158845,15.6477978 10.3836823,13.9455596 L22.9602888,1.36895307 C24.6623827,-0.33299639 27.4213718,-0.33299639 29.1243321,1.36866426 L29.1243321,1.36866426 Z"></path>
                        </g>
                    </g>
                </g>
            </g>
        </g>
    </g>
</svg>