<?xml version="1.0" encoding="UTF-8" standalone="no"?>
<svg width="80px" height="80px" viewBox="0 0 80 80" version="1.1" xmlns="http://www.w3.org/2000/svg" xmlns:xlink="http://www.w3.org/1999/xlink">
    <!-- Generator: Sketch 39.1 (31720) - http://www.bohemiancoding.com/sketch -->
    <title>intercom</title>
    <desc>Created with Sketch.</desc>
    <defs>
        <polygon id="path-1" points="0 79.96 80 79.96 80 0 0 0"></polygon>
    </defs>
    <g id="icons" stroke="none" stroke-width="1" fill="none" fill-rule="evenodd">
        <g id="intercom">
            <g id="Intercom_bue_symbol">
                <mask id="mask-2" fill="white">
                    <use xlink:href="#path-1"></use>
                </mask>
                <g id="Clip-2"></g>
                <path d="M69.3333333,43.984 C69.3333333,45.4566667 68.1393333,46.6506667 66.6666667,46.6506667 C65.194,46.6506667 64,45.4566667 64,43.984 L64,20 C64,18.5273333 65.194,17.3333333 66.6666667,17.3333333 C68.1393333,17.3333333 69.3333333,18.5273333 69.3333333,20 L69.3333333,43.984 L69.3333333,43.984 Z M68.4026667,60.6753333 C67.9906667,61.028 58.112,69.3173333 40,69.3173333 C21.888,69.3173333 12.0093333,61.028 11.5973333,60.6753333 C10.48,59.7166667 10.35,58.0333333 11.3086667,56.9146667 C12.2646667,55.7986667 13.944,55.6666667 15.0626667,56.6206667 C15.2193333,56.7513333 24.04,63.984 40,63.984 C56.16,63.984 64.8453333,56.6993333 64.9306667,56.626 C66.0466667,55.6673333 67.7333333,55.796 68.6913333,56.9146667 C69.65,58.0333333 69.5206667,59.7166667 68.4026667,60.6753333 L68.4026667,60.6753333 Z M10.6666667,20 C10.6666667,18.5273333 11.8606667,17.3333333 13.3333333,17.3333333 C14.806,17.3333333 16,18.5273333 16,20 L16,43.984 C16,45.4566667 14.806,46.6506667 13.3333333,46.6506667 C11.8606667,46.6506667 10.6666667,45.4566667 10.6666667,43.984 L10.6666667,20 L10.6666667,20 Z M24,14.6666667 C24,13.194 25.194,12 26.6666667,12 C28.1393333,12 29.3333333,13.194 29.3333333,14.6666667 L29.3333333,50.292 C29.3333333,51.7646667 28.1393333,52.9586667 26.6666667,52.9586667 C25.194,52.9586667 24,51.7646667 24,50.292 L24,14.6666667 L24,14.6666667 Z M37.3333333,13.3173333 C37.3333333,11.8446667 38.5273333,10.6506667 40,10.6506667 C41.4726667,10.6506667 42.6666667,11.8446667 42.6666667,13.3173333 L42.6666667,51.984 C42.6666667,53.4566667 41.4726667,54.6506667 40,54.6506667 C38.5273333,54.6506667 37.3333333,53.4566667 37.3333333,51.984 L37.3333333,13.3173333 L37.3333333,13.3173333 Z M50.6666667,14.6666667 C50.6666667,13.194 51.8606667,12 53.3333333,12 C54.806,12 56,13.194 56,14.6666667 L56,50.292 C56,51.7646667 54.806,52.9586667 53.3333333,52.9586667 C51.8606667,52.9586667 50.6666667,51.7646667 50.6666667,50.292 L50.6666667,14.6666667 L50.6666667,14.6666667 Z M70,0 L10,0 C4.47666667,0 0,4.47733333 0,10 L0,70 C0,75.5226667 4.47733333,80 10,80 L70,80 C75.5226667,80 80,75.5226667 80,70 L80,10 C80,4.47733333 75.5226667,0 70,0 L70,0 Z" id="Fill-1" fill="#1F8DED" mask="url(#mask-2)"></path>
            </g>
        </g>
    </g>
</svg>