<?xml version="1.0" encoding="UTF-8" standalone="no"?>
<svg width="80px" height="80px" viewBox="0 0 80 80" version="1.1" xmlns="http://www.w3.org/2000/svg" xmlns:xlink="http://www.w3.org/1999/xlink">
    <!-- Generator: Sketch 39.1 (31720) - http://www.bohemiancoding.com/sketch -->
    <title>linkedin</title>
    <desc>Created with Sketch.</desc>
    <defs>
        <polygon id="path-1" points="39.9984444 80 0 80 0 0 39.9984444 0 79.9968889 0 79.9968889 80 39.9984444 80"></polygon>
    </defs>
    <g id="icons" stroke="none" stroke-width="1" fill="none" fill-rule="evenodd">
        <g id="linkedin">
            <g id="Page-1">
                <g id="Group-7">
                    <mask id="mask-2" fill="white">
                        <use xlink:href="#path-1"></use>
                    </mask>
                    <g id="Clip-6"></g>
                    <path d="M74.0798519,0 L5.90355556,0 C2.64725926,0 -0.000148148149,2.5837037 -0.000148148149,5.76888889 L-0.000148148149,74.2281481 C-0.000148148149,77.4133333 2.64725926,80 5.90355556,80 L74.0798519,80 C77.3435556,80 79.9968889,77.4133333 79.9968889,74.2281481 L79.9968889,5.76888889 C79.9968889,2.5837037 77.3435556,0 74.0798519,0" id="Fill-5" fill="#0065A1" mask="url(#mask-2)"></path>
                </g>
                <path d="M17.7908148,11.0127407 C21.5848889,11.0127407 24.6678519,14.0957037 24.6678519,17.8957037 C24.6678519,21.6927407 21.5848889,24.7757037 17.7908148,24.7757037 C13.9893333,24.7757037 10.9137778,21.6927407 10.9137778,17.8957037 C10.9137778,14.0957037 13.9893333,11.0127407 17.7908148,11.0127407 L17.7908148,11.0127407 Z M11.856,68.1682963 L23.7256296,68.1682963 L23.7256296,29.9905185 L11.856,29.9905185 L11.856,68.1682963 Z" id="Fill-8" fill="#FEFEFE"></path>
                <path d="M31.1675556,29.9906667 L42.5482963,29.9906667 L42.5482963,35.2114074 L42.7112593,35.2114074 C44.294963,32.2084444 48.1660741,29.0454815 53.9379259,29.0454815 C65.9527407,29.0454815 68.1705185,36.9491852 68.1705185,47.2291852 L68.1705185,68.1684444 L56.3112593,68.1684444 L56.3112593,49.6025185 C56.3112593,45.1743704 56.2327407,39.4795556 50.1453333,39.4795556 C43.9705185,39.4795556 43.0282963,44.3062222 43.0282963,49.284 L43.0282963,68.1684444 L31.1675556,68.1684444 L31.1675556,29.9906667 Z" id="Fill-10" fill="#FEFEFE"></path>
            </g>
        </g>
    </g>
</svg>