<svg xmlns="http://www.w3.org/2000/svg" viewBox="0 0 50.81 45"><defs><style>.cls-1{fill:#f3801e;}.cls-2{fill:#d6701b;}.cls-3{fill:#d45128;}.cls-4{fill:#004368;}.cls-5{fill:#fff;}</style></defs><title>Olark</title><g id="Layer_2" data-name="Layer 2"><g id="Layer_1-2" data-name="Layer 1"><path class="cls-1" d="M50.56,21.81A11.08,11.08,0,0,1,50,25.52a9.33,9.33,0,0,1-1.73,3,9.54,9.54,0,0,1-2.76,2.2A11.7,11.7,0,0,1,41.76,32h-.33l-8.92,1.38-.19,0L16.76,45l-.42-9.51-1.95,0h-.09a20.89,20.89,0,0,1-2.6.18,15.17,15.17,0,0,1-3.55-.38,10.37,10.37,0,0,1-4.32-2.09,9.44,9.44,0,0,1-2.57-3.4,11.5,11.5,0,0,1-1-4.08L0,12A11.66,11.66,0,0,1,.7,7.17a9.83,9.83,0,0,1,2.5-3.73A11.82,11.82,0,0,1,7.27,1a17.5,17.5,0,0,1,5.34-1h.48L41.38,1.82A12.2,12.2,0,0,1,43.54,2a9.69,9.69,0,0,1,1.92.51,8.19,8.19,0,0,1,1.66.85A7.68,7.68,0,0,1,48.5,4.51a8.07,8.07,0,0,1,1,1.34,8.78,8.78,0,0,1,.72,1.54,10,10,0,0,1,.44,1.72A11.85,11.85,0,0,1,50.81,11Z"/><path class="cls-2" d="M22.44,31.24s-3.13-.51-3.5-.58a12,12,0,0,1-2.47-1c-.07-.17-1.51-.64-2-1.4s-1.34-1-1.58-.86-.3-.37.59-1.06,5.17-1.71,7.2-1.48,11.48.59,11.48.59,3.57-.07,5.08.58,2.5.41,1.81,1.07a7.14,7.14,0,0,1-1.86,1.15l.1.86s-6.05-1.45-6.82-1.42a4,4,0,0,1-2.34,1.84c-.79.21-2.8,1-3.19,1.13S22.44,31.24,22.44,31.24Z"/><path class="cls-3" d="M39.08,27.52a1.49,1.49,0,0,0,.09-.2"/><path class="cls-4" d="M37.65,29.12h0L37.47,29l-.21-.1L37,28.8l-.55-.27-.67-.33L35,27.85l-.82-.38c-.47-.21-.94-.42-1.42-.61s-.94-.37-1.38-.52a10.91,10.91,0,0,0-1.2-.34,2.9,2.9,0,0,0-.89-.08h-.16l0,0,.09.42c.05.24.12.55.18.9s.13.74.18,1.11.09.73.1,1c0,.08,0,.15,0,.22s0,.13,0,.19a1.06,1.06,0,0,1,0,.15.39.39,0,0,1,0,.11l-.47-.42-3.31-3L25.84,28l-1.3,1.65,1-.37h.14l.11,0a.27.27,0,0,1,.08.08.34.34,0,0,1,0,.12.43.43,0,0,1,0,.15.45.45,0,0,1,0,.14.41.41,0,0,1-.08.11.34.34,0,0,1-.11.07l-1.82.66.1.79.11.87a.46.46,0,0,1,0,.15.44.44,0,0,1-.05.13.38.38,0,0,1-.09.1.32.32,0,0,1-.12.06l-.15,0-.11-.06a.26.26,0,0,1-.07-.09.34.34,0,0,1,0-.11l-.11-.89-.05-.43-.49.53-.57.63,0,0,0,0-.05,0H22l-.07,0-.06,0-.05-.05a.36.36,0,0,1-.06-.11.42.42,0,0,1,0-.13.46.46,0,0,1,0-.13.42.42,0,0,1,.06-.12l.73-.8-2,.46h-.1l-.09,0-.08-.06a.34.34,0,0,1-.06-.09.39.39,0,0,1,0-.11.43.43,0,0,1,0-.15.46.46,0,0,1,.06-.13.41.41,0,0,1,.09-.1.32.32,0,0,1,.12-.06L23.4,30l1.8-2.29-.05-1.15-.53,0-.68-.07c-.25,0-.52-.08-.8-.15s-.58-.15-.89-.25l0,.92-1.3,1.65,1.05-.37h.14l.11,0a.29.29,0,0,1,.08.08.35.35,0,0,1,0,.12.44.44,0,0,1,0,.15.45.45,0,0,1,0,.14.38.38,0,0,1-.08.11.31.31,0,0,1-.11.07l-1.86.66-.2,1a.43.43,0,0,1,0,.12l-.07.1-.09.07-.1,0h-.08a.31.31,0,0,1-.21-.15.38.38,0,0,1,0-.13.44.44,0,0,1,0-.15l.07-.35-.78.66,0,0,0,0,0,0h0l-.11,0-.08,0-.06,0,0-.06,0,0,0,0V30.6a.43.43,0,0,1,0-.1.43.43,0,0,1,0-.1l0-.09.07-.07.48-.41-1.28.07-.39,0-.14,0a.32.32,0,0,1-.16-.19.41.41,0,0,1,0-.13.46.46,0,0,1,0-.08l0-.08,0-.07,0-.06,0,0,0,0,.05,0h.06L19.72,29l0-.07,0-.06,0,0,.06,0,1.66-2.1,0-.88-.24-.11-.24-.12-.24-.13-.25-.14a8.92,8.92,0,0,1-2-1.57,10.29,10.29,0,0,1-1.77-2.54,14.78,14.78,0,0,1-1.24-3.74,24.63,24.63,0,0,1-.43-5.17s0-.21,0-.46,0-.6,0-1,0-.76,0-1.12,0-.68.08-.91c0,0,0-.11-.07-.27s-.08-.36-.11-.59a4.93,4.93,0,0,1,0-.76,2.82,2.82,0,0,1,.12-.78l.22.19.44.39.46.45a2.21,2.21,0,0,1,.3.36,1.9,1.9,0,0,1,.63.15,4.24,4.24,0,0,1,1.17.69,5.46,5.46,0,0,1,1.26,1.52,8.37,8.37,0,0,1,.93,2.64c.09.06.61.38,1.38.9s1.76,1.21,2.82,2A40.42,40.42,0,0,1,28,18.44a16.79,16.79,0,0,1,2.51,2.87,5.16,5.16,0,0,0,1.8,1.39,30,30,0,0,0,2.93,1.38c1,.42,2,.79,2.77,1.07l1.38.48-.3.16-.64.31c-.25.11-.51.23-.75.32a3.05,3.05,0,0,1-.64.18c-.13,0-.21.12-.24.27a1.55,1.55,0,0,0,0,.57,4.25,4.25,0,0,0,.2.69,4.17,4.17,0,0,0,.3.63l.08.13.08.11.08.08Zm-9.8-7.36c.11.23.23.43,0,0a11.84,11.84,0,0,0-1.41-2.22A9.73,9.73,0,0,0,25,18.13a7.69,7.69,0,0,0-1.1-.76,4.31,4.31,0,0,0-.5-.24l-.11-.06-.11,0-.1,0H23a.17.17,0,0,0-.11,0,.11.11,0,0,0,0,.1.4.4,0,0,0,.09.16,1.43,1.43,0,0,0,.22.22,8.5,8.5,0,0,1,2.91,1.89,9.25,9.25,0,0,1,1,1.16,10.27,10.27,0,0,1,.74,1.19M18.5,11.91a.67.67,0,0,0,.18-.19.77.77,0,0,0,.1-.24.81.81,0,0,0,0-.27.75.75,0,0,0-.07-.26.67.67,0,0,0-.1-.15.59.59,0,0,0-.13-.11l-.15-.06h-.23l-.07,0-.07,0-.06,0a.66.66,0,0,0-.18.18.76.76,0,0,0-.1.24.81.81,0,0,0,0,.27.76.76,0,0,0,.07.26.66.66,0,0,0,.1.15.61.61,0,0,0,.13.11l.15.06h.23l.07,0,.07,0,.06,0"/><path class="cls-5" d="M18.18,10.62h.16l.15.06a.59.59,0,0,1,.13.11.67.67,0,0,1,.1.15.75.75,0,0,1,.07.26.81.81,0,0,1,0,.27.77.77,0,0,1-.1.24.66.66,0,0,1-.18.19l-.06,0-.07,0-.07,0h-.23l-.15-.06a.61.61,0,0,1-.13-.11.66.66,0,0,1-.1-.15.76.76,0,0,1-.07-.26.81.81,0,0,1,0-.27.76.76,0,0,1,.1-.24.66.66,0,0,1,.18-.18l.06,0,.07,0,.07,0Z"/><path class="cls-5" d="M23.43,17.13a4.31,4.31,0,0,1,.5.24,7.69,7.69,0,0,1,1.1.76,9.73,9.73,0,0,1,1.4,1.42,11.84,11.84,0,0,1,1.41,2.22,10.27,10.27,0,0,0-.74-1.19,9.25,9.25,0,0,0-1-1.16,8.5,8.5,0,0,0-2.91-1.89,1.43,1.43,0,0,1-.22-.22.4.4,0,0,1-.09-.16.11.11,0,0,1,0-.1A.17.17,0,0,1,23,17h.08l.1,0,.11,0Z"/></g></g></svg>