<?xml version="1.0"?>
<svg width="1024" height="1024" xmlns="http://www.w3.org/2000/svg" xmlns:svg="http://www.w3.org/2000/svg">
 <!-- Created with SVG-edit - http://svg-edit.googlecode.com/ -->
 <g>
  <title>Layer 1</title>
  <g stroke="null" id="svg_11">
   <path stroke="null" id="path3" fill="#0072c6" d="m636.621432,222.790621l0,197.252111l68.932112,43.404536c1.818012,0.530246 5.757007,0.568141 7.575019,0l296.67339,-200.016928c0,-23.671765 -22.081029,-40.639719 -34.541847,-40.639719l-338.638674,0z"/>
   <path stroke="null" id="path5" fill="#0072c6" d="m636.621432,493.633465l62.910031,43.215156c8.862689,6.514431 19.543391,0 19.543391,0c-10.642806,6.514431 290.764995,-193.69178 290.764995,-193.69178l0,362.537715c0,39.465542 -25.262502,56.016839 -53.668581,56.016839l-319.58773,0l0,-268.07793l0.037895,0z"/>
   <g stroke="null" id="g23" transform="matrix(37.87481666471092,0,0,37.87481666471092,-1655.4254045163962,-4676.6695582939365) ">
    <path stroke="null" id="svg_9" fill="#0072c6" d="m51.916379,134.109308c-0.566,0 -1.017,0.266 -1.35,0.797c-0.333,0.531 -0.5,1.234 -0.5,2.109c0,0.888 0.167,1.59 0.5,2.106c0.333,0.517 0.77,0.774 1.31,0.774c0.557,0 0.999,-0.251 1.325,-0.753c0.326,-0.502 0.49,-1.199 0.49,-2.09c0,-0.929 -0.158,-1.652 -0.475,-2.169c-0.317,-0.516 -0.75,-0.774 -1.3,-0.774z"/>
    <path stroke="null" id="svg_10" fill="#0072c6" d="m44.036379,126.714308l0,20.375l15.5,3.25l0,-26.625l-15.5,3zm10.372,13.632c-0.655,0.862 -1.509,1.294 -2.563,1.294c-1.027,0 -1.863,-0.418 -2.51,-1.253c-0.646,-0.836 -0.97,-1.924 -0.97,-3.266c0,-1.417 0.328,-2.563 0.985,-3.438c0.657,-0.875 1.527,-1.313 2.61,-1.313c1.023,0 1.851,0.418 2.482,1.256c0.632,0.838 0.948,1.942 0.948,3.313c0.001,1.409 -0.327,2.545 -0.982,3.407z"/>
   </g>
  </g>
 </g>
</svg>