<svg xmlns="http://www.w3.org/2000/svg" viewBox="0 0 64.29 45"><defs><style>.cls-1{fill:#00a1e0;}.cls-2{fill:#fff;}</style></defs><title>Salesforce</title><g id="Layer_2" data-name="Layer 2"><g id="Layer_1-2" data-name="Layer 1"><path class="cls-1" d="M26.75,4.91a11.27,11.27,0,0,1,8.15-3.5,11.38,11.38,0,0,1,9.92,5.88A13.71,13.71,0,0,1,50.43,6.1a14,14,0,0,1,0,28,13.76,13.76,0,0,1-2.73-.27A10.13,10.13,0,0,1,34.43,38a11.56,11.56,0,0,1-21.49-.52,10.6,10.6,0,0,1-2.21.23A10.86,10.86,0,0,1,5.37,17.43,12.49,12.49,0,0,1,26.75,4.91"/><path class="cls-2" d="M9.31,23.34c0,.11,0,.13,0,.15a3.75,3.75,0,0,0,.37.22,3.91,3.91,0,0,0,1.92.45c1.32,0,2.14-.7,2.14-1.83v0c0-1-.92-1.42-1.79-1.7l-.11,0c-.65-.21-1.22-.4-1.22-.83v0c0-.37.33-.64.84-.64a3.8,3.8,0,0,1,1.68.43s.13.08.17,0l.27-.72a.12.12,0,0,0-.06-.15,3.74,3.74,0,0,0-1.89-.51h-.13a1.84,1.84,0,0,0-2,1.77v0c0,1.1.93,1.46,1.8,1.71l.14,0c.63.2,1.18.36,1.18.81v0c0,.41-.36.71-.93.71a3.12,3.12,0,0,1-1.7-.49l-.22-.14a.1.1,0,0,0-.17.06l-.26.72Zm19.31,0c0,.11,0,.13,0,.15a3.76,3.76,0,0,0,.37.22,3.91,3.91,0,0,0,1.92.45c1.32,0,2.14-.7,2.14-1.83v0c0-1-.92-1.42-1.79-1.7l-.11,0c-.65-.21-1.22-.4-1.22-.83v0c0-.37.33-.64.84-.64a3.8,3.8,0,0,1,1.68.43s.13.08.17,0l.27-.72a.12.12,0,0,0-.06-.15A3.74,3.74,0,0,0,31,18.09h-.13a1.84,1.84,0,0,0-2,1.77v0c0,1.1.93,1.46,1.8,1.71l.14,0c.63.2,1.18.36,1.18.81v0c0,.41-.36.71-.93.71a3.12,3.12,0,0,1-1.7-.49l-.22-.14a.11.11,0,0,0-.17.06l-.26.72ZM41.8,21.12a2.71,2.71,0,0,1-.35,1.5,1.18,1.18,0,0,1-1.07.52,1.17,1.17,0,0,1-1.07-.52,2.74,2.74,0,0,1-.35-1.5,2.72,2.72,0,0,1,.35-1.49,1.17,1.17,0,0,1,1.07-.52,1.19,1.19,0,0,1,1.07.52,2.69,2.69,0,0,1,.35,1.49m1.1-1.18a2.65,2.65,0,0,0-.5-1,2.42,2.42,0,0,0-.85-.64,3.07,3.07,0,0,0-2.36,0,2.43,2.43,0,0,0-.85.64,2.69,2.69,0,0,0-.5,1,4.42,4.42,0,0,0,0,2.37,2.66,2.66,0,0,0,.5,1,2.36,2.36,0,0,0,.85.64,3.13,3.13,0,0,0,2.36,0,2.36,2.36,0,0,0,.85-.64,2.65,2.65,0,0,0,.5-1,4.4,4.4,0,0,0,0-2.37m9,3a.1.1,0,0,0-.14-.07,2.52,2.52,0,0,1-.51.15,4,4,0,0,1-.6,0,1.68,1.68,0,0,1-1.26-.47,2.1,2.1,0,0,1-.47-1.5,2.33,2.33,0,0,1,.42-1.45,1.44,1.44,0,0,1,1.22-.54,3.66,3.66,0,0,1,1.16.17s.09,0,.13-.08l.27-.75a.1.1,0,0,0-.07-.13,4.3,4.3,0,0,0-.73-.18,5.51,5.51,0,0,0-.83-.06,3,3,0,0,0-1.23.24,2.54,2.54,0,0,0-.89.64,2.73,2.73,0,0,0-.54,1,3.81,3.81,0,0,0-.18,1.19,3.17,3.17,0,0,0,.73,2.19,2.79,2.79,0,0,0,2.17.82,4.48,4.48,0,0,0,1.56-.28.1.1,0,0,0,0-.13L51.94,23Zm1.93-2.46a2.16,2.16,0,0,1,.3-.88,1.19,1.19,0,0,1,1.07-.54,1.16,1.16,0,0,1,1,.54,1.84,1.84,0,0,1,.25.88H53.87Zm3.71-.78a2.31,2.31,0,0,0-.48-.87,2.19,2.19,0,0,0-.71-.54,2.73,2.73,0,0,0-1.07-.22,2.91,2.91,0,0,0-1.23.24,2.45,2.45,0,0,0-.86.65,2.68,2.68,0,0,0-.5,1,4.18,4.18,0,0,0-.16,1.19,4,4,0,0,0,.17,1.19,2.39,2.39,0,0,0,1.48,1.57,3.75,3.75,0,0,0,1.35.22,3.89,3.89,0,0,0,1.88-.37s.08-.06,0-.18l-.24-.68a.11.11,0,0,0-.14-.06,3.6,3.6,0,0,1-1.53.27,1.52,1.52,0,0,1-1.71-1.68h3.73a.11.11,0,0,0,.11-.1,4,4,0,0,0-.11-1.61M24,20.51a2.18,2.18,0,0,1,.3-.88,1.19,1.19,0,0,1,1.07-.54,1.16,1.16,0,0,1,1,.54,1.85,1.85,0,0,1,.25.88Zm3.71-.78a2.31,2.31,0,0,0-.48-.87,2.19,2.19,0,0,0-.71-.54,2.72,2.72,0,0,0-1.07-.22,2.91,2.91,0,0,0-1.23.24,2.45,2.45,0,0,0-.86.65,2.68,2.68,0,0,0-.5,1,4.22,4.22,0,0,0-.16,1.19,4,4,0,0,0,.17,1.19,2.39,2.39,0,0,0,1.48,1.57,3.75,3.75,0,0,0,1.35.22,3.89,3.89,0,0,0,1.88-.37s.08-.06,0-.18l-.24-.68a.11.11,0,0,0-.14-.06,3.6,3.6,0,0,1-1.53.27A1.52,1.52,0,0,1,24,21.43h3.73a.11.11,0,0,0,.11-.1,4,4,0,0,0-.11-1.61M16,23a.75.75,0,0,1-.22-.22.9.9,0,0,1-.11-.48.82.82,0,0,1,.33-.72,1.67,1.67,0,0,1,1.08-.27,7.64,7.64,0,0,1,1,.09V23h0a7.57,7.57,0,0,1-1,.13A1.68,1.68,0,0,1,16,23m1.48-2.62-.58,0a3.53,3.53,0,0,0-.92.12,2.39,2.39,0,0,0-.78.36,1.74,1.74,0,0,0-.74,1.47,2,2,0,0,0,.17.85,1.53,1.53,0,0,0,.49.58,2,2,0,0,0,.76.33,4.45,4.45,0,0,0,1,.1A6.72,6.72,0,0,0,18,24l.94-.18.26-.07a.12.12,0,0,0,.09-.12V20.26a2.09,2.09,0,0,0-.59-1.64,2.54,2.54,0,0,0-1.71-.52,6.14,6.14,0,0,0-1,.09,3.6,3.6,0,0,0-1.15.42.12.12,0,0,0,0,.15l.26.71a.09.09,0,0,0,.12.06l.06,0a3.78,3.78,0,0,1,1.62-.38,1.5,1.5,0,0,1,.92.24c.2.16.31.39.31.89v.16l-.61-.07m30.06-1.92a.1.1,0,0,0-.06-.13,3.23,3.23,0,0,0-.62-.11,1.86,1.86,0,0,0-1,.15,1.69,1.69,0,0,0-.63.46v-.45a.11.11,0,0,0-.11-.11h-1a.11.11,0,0,0-.11.11V23.9a.11.11,0,0,0,.11.11h1a.11.11,0,0,0,.11-.11V21.12a3.25,3.25,0,0,1,.12-1,1.41,1.41,0,0,1,.33-.55,1.14,1.14,0,0,1,.46-.28,1.79,1.79,0,0,1,.5-.07,2.09,2.09,0,0,1,.41.05c.07,0,.11,0,.14-.1l.28-.78"/><path class="cls-2" d="M38.32,15.84l-.37-.09a2.92,2.92,0,0,0-.51,0,2.13,2.13,0,0,0-1.58.57A3.08,3.08,0,0,0,35.11,18l0,.25h-.85a.13.13,0,0,0-.12.11L34,19.1c0,.07,0,.12.12.12h.82l-.84,4.66a5.77,5.77,0,0,1-.22.92,1.88,1.88,0,0,1-.26.53.69.69,0,0,1-.34.26,1.39,1.39,0,0,1-.44.06l-.3,0a.88.88,0,0,1-.2-.07.1.1,0,0,0-.13.06l-.28.76a.11.11,0,0,0,.06.15l.34.1a2.26,2.26,0,0,0,.55.05,2.73,2.73,0,0,0,.91-.14,1.73,1.73,0,0,0,.69-.48,2.46,2.46,0,0,0,.48-.83A7.08,7.08,0,0,0,35.25,24l.84-4.75h1.23a.13.13,0,0,0,.12-.11l.14-.77c0-.07,0-.12-.12-.12H36.27a5.17,5.17,0,0,1,.2-.84,1.1,1.1,0,0,1,.26-.4.78.78,0,0,1,.31-.19,1.3,1.3,0,0,1,.4-.06,1.56,1.56,0,0,1,.31,0l.19,0c.12,0,.14,0,.16-.06l.28-.78a.1.1,0,0,0-.07-.13M21.67,23.9a.11.11,0,0,1-.11.11h-1a.11.11,0,0,1-.11-.11v-8a.11.11,0,0,1,.11-.11h1a.11.11,0,0,1,.11.11Z"/></g></g></svg>