<?xml version="1.0" encoding="UTF-8" standalone="no"?>
<svg width="80px" height="80px" viewBox="0 0 80 80" version="1.1" xmlns="http://www.w3.org/2000/svg" xmlns:xlink="http://www.w3.org/1999/xlink">
    <!-- Generator: Sketch 3.7.2 (28276) - http://www.bohemiancoding.com/sketch -->
    <title>slack</title>
    <desc>Created with Sketch.</desc>
    <defs>
        <polyline id="path-1" points="0 0.968426471 80.0315735 0.968426471 80.0315735 81 0 81"></polyline>
        <polyline id="path-3" points="0 0.968426471 80.0315735 0.968426471 80.0315735 81 0 81"></polyline>
    </defs>
    <g id="icons" stroke="none" stroke-width="1" fill="none" fill-rule="evenodd">
        <g id="slack">
            <g id="Page-1" transform="translate(0.000000, -1.000000)">
                <g id="Group-3">
                    <mask id="mask-2" fill="white">
                        <use xlink:href="#path-1"></use>
                    </mask>
                    <g id="Clip-2"></g>
                    <path d="M51.9003926,5.89668088 C50.6842015,2.15162206 46.6615985,0.102798529 42.9177309,1.31898971 C39.1726721,2.53637206 37.1238485,6.55778382 38.3400397,10.3028426 L56.7746868,67.0195191 C58.0397162,70.5180044 61.8193191,72.4834456 65.4464515,71.4387838 C69.2296279,70.3500485 71.5369368,66.3310191 70.3290838,62.6145485 C70.2838191,62.4739897 51.9003926,5.89668088 51.9003926,5.89668088" id="Fill-1" fill="#EAAA00" mask="url(#mask-2)"></path>
                </g>
                <path d="M23.3366956,15.1776132 C22.1205044,11.4325544 18.0979015,9.38373088 14.3540338,10.5999221 C10.608975,11.8173044 8.56015147,15.8387162 9.77634265,19.583775 L28.2109897,76.3004515 C29.4760191,79.7989368 33.2556221,81.7643779 36.8827544,80.7197162 C40.6659309,79.6309809 42.9732397,75.6119515 41.7653868,71.8954809 C41.7201221,71.7549221 23.3366956,15.1776132 23.3366956,15.1776132" id="Fill-4" fill="#44B28A"></path>
                <g id="Group-8">
                    <mask id="mask-4" fill="white">
                        <use xlink:href="#path-3"></use>
                    </mask>
                    <g id="Clip-7"></g>
                    <path d="M75.1033191,52.8692956 C78.8483779,51.6531044 80.8972015,47.6305015 79.6810103,43.8866338 C78.4636279,40.141575 74.4422162,38.0927515 70.6971574,39.3089426 L13.9804809,57.7435897 C10.4819956,59.0086191 8.51655441,62.7882221 9.56121618,66.4153544 C10.6499515,70.1985309 14.6689809,72.5058397 18.3854515,71.2979868 C18.5260103,71.2527221 75.1033191,52.8692956 75.1033191,52.8692956" id="Fill-6" fill="#DC015B" mask="url(#mask-4)"></path>
                </g>
                <path d="M25.8018353,68.8883559 C29.4932912,67.6888412 34.2520412,66.1426941 39.3574235,64.4833853 C38.1579088,60.7919294 36.6117618,56.0331794 34.9524529,50.9266059 L21.3956735,55.3327676 L25.8018353,68.8883559 Z" id="Fill-9" fill="#4C2B47"></path>
                <path d="M54.3654132,59.6074235 C59.4898544,57.9421588 64.2533691,56.3948206 67.9210015,55.2024529 C66.7214868,51.5109971 65.1741485,46.7510559 63.5148397,41.6432912 L49.9592515,46.0494529 L54.3654132,59.6074235 Z" id="Fill-11" fill="#CB1517"></path>
                <path d="M65.8223868,24.3057176 C69.5674456,23.0895265 71.6162691,19.0669235 70.4000779,15.3230559 C69.1826956,11.5779971 65.1612838,9.52917353 61.416225,10.7453647 L4.69954853,29.1800118 C1.20106324,30.4450412 -0.764377941,34.2246441 0.280283824,37.8517765 C1.36901912,41.6349529 5.38804853,43.9422618 9.10451912,42.7344088 C9.24507794,42.6891441 65.8223868,24.3057176 65.8223868,24.3057176" id="Fill-13" fill="#80CBDE"></path>
                <path d="M16.5181632,40.3256118 C20.2108103,39.1260971 24.9695603,37.57995 30.0761338,35.9206412 C28.4108691,30.7950088 26.8635309,26.0314941 25.6711632,22.3638618 L12.1120015,26.7700235 L16.5181632,40.3256118 Z" id="Fill-15" fill="#139078"></path>
                <path d="M45.0817412,31.0446794 C50.2073735,29.3794147 54.9720794,27.8308853 58.6397118,26.6397088 C56.9744471,21.5128853 55.4259176,16.7481794 54.2347412,13.0793559 L40.6755794,17.4867088 L45.0817412,31.0446794 Z" id="Fill-17" fill="#68862C"></path>
            </g>
        </g>
    </g>
</svg>