<?xml version="1.0" encoding="UTF-8" standalone="no"?>
<svg width="80px" height="80px" viewBox="0 0 80 80" version="1.1" xmlns="http://www.w3.org/2000/svg" xmlns:xlink="http://www.w3.org/1999/xlink">
    <!-- Generator: Sketch 3.7.2 (28276) - http://www.bohemiancoding.com/sketch -->
    <title>steamchat</title>
    <desc>Created with Sketch.</desc>
    <defs></defs>
    <g id="icons" stroke="none" stroke-width="1" fill="none" fill-rule="evenodd">
        <g id="steamchat">
            <g id="1460168260_steam">
                <g id="Group">
                    <g id="black">
                        <g id="steam">
                            <path d="M40,80 C62.0913911,80 80,62.0913911 80,40 C80,17.9086089 62.0913911,0 40,0 C17.9086089,0 0,17.9086089 0,40 C0,62.0913911 17.9086089,80 40,80 L40,80 Z" id="Shape" fill="#000000"></path>
                            <path d="M56.376286,37.6713472 C54.1154009,37.6713472 52.2856752,35.7345965 52.2856752,33.3464935 C52.2856752,30.9583903 54.115892,29.0221608 56.376286,29.0221608 C58.6347156,29.0221608 60.4659145,30.9583903 60.4659145,33.3464935 C60.4659145,35.7345965 58.6347156,37.6713472 56.376286,37.6713472 L56.376286,37.6713472 Z M59.0960684,41.4859496 L53.5789401,46.4753036 C53.6385641,46.8735695 53.6795897,47.2782215 53.6795897,47.6933237 C53.6795897,51.9407188 50.4221539,55.3846153 46.4060171,55.3846153 C42.9412649,55.3846153 40.0481368,52.8220127 39.3151453,49.3932107 L25.6782223,44.5008107 C24.6000684,45.3658487 23.2604444,45.8854521 21.8032137,45.8854521 C18.2585983,45.8854521 15.3846153,42.8467881 15.3846153,39.0986768 C15.3846153,35.351146 18.2585983,32.3130625 21.8032137,32.3130625 C24.8511453,32.3130625 27.3974701,34.5598393 28.0544273,37.5700557 L41.2274872,42.2964149 C42.5107692,40.9210624 44.2808889,40.0589271 46.2413675,40.0124821 L48.2144273,33.6704176 C48.2089572,33.5444355 48.1974701,33.4201952 48.1974701,33.293052 C48.1974701,28.5005087 51.8728205,24.6153847 56.4058804,24.6153847 C60.9400341,24.6153847 64.6153847,28.5005087 64.6153847,33.293052 C64.6153847,37.0887695 62.3064616,40.3074079 59.0960684,41.4859496 L59.0960684,41.4859496 L59.0960684,41.4859496 Z M25.8395897,36.7746852 C25.0726837,35.3151511 23.6001368,34.3264532 21.9098804,34.3264532 C19.4270085,34.3264532 17.4151111,36.4542147 17.4151111,39.0783571 C17.4151111,41.7024995 19.4270085,43.8296804 21.9098804,43.8296804 C22.3682735,43.8296804 22.8102564,43.7565295 23.2270769,43.6212584 L21.0915556,42.8554965 C19.3706667,41.8813127 18.7230085,39.6165385 19.644718,37.7970557 C20.5669744,35.978734 22.7090599,35.2948313 24.4288547,36.2690152 L25.8395897,36.7746852 L25.8395897,36.7746852 L25.8395897,36.7746852 Z M56.3792337,39.4088993 C59.5638348,39.4088993 62.1478291,36.6795277 62.1478291,33.3127079 C62.1478291,30.9514101 60.8779951,28.9041433 59.0215943,27.8910221 C58.2298363,27.4589243 57.3313796,27.2149412 56.3792337,27.2149412 C53.1946327,27.2149412 50.6136068,29.9443127 50.6136068,33.3127079 C50.6136068,36.6795277 53.1946327,39.4088993 56.3792337,39.4088993 L56.3792337,39.4088993 Z M51.2235213,48.3528427 C51.2235213,45.5185367 49.0502564,43.2206704 46.3699145,43.2206704 C45.9935727,43.2206704 45.6303589,43.2705987 45.2791795,43.3553608 L47.9917949,44.3283836 C49.7121368,45.3037285 50.3581539,47.5679221 49.4364444,49.3856633 C48.515282,51.2063072 46.3731965,51.8896293 44.6534017,50.9154455 L41.730188,49.8663691 C42.3411965,51.9616191 44.1873504,53.4844344 46.3699145,53.4844344 C49.0502564,53.4850149 51.2235213,51.1865681 51.2235213,48.3528427 L51.2235213,48.3528427 L51.2235213,48.3528427 Z" id="Shape" fill="#FFFFFF"></path>
                        </g>
                    </g>
                </g>
            </g>
        </g>
    </g>
</svg>