<svg xmlns="http://www.w3.org/2000/svg" viewBox="0 0 52.24 45"><defs><style>.cls-1{fill:#4badfc;}.cls-2{fill:#6fd848;}</style></defs><title>Teamwork</title><g id="Layer_2" data-name="Layer 2"><g id="Layer_1-2" data-name="Layer 1"><path class="cls-1" d="M52.24,33.57q0-.13,0-.27,0-.61-.11-1.22c0-.41-.1-.81-.16-1.22s-.12-.82-.17-1.24L50.25,17.25a5,5,0,0,0-.12-.63,3.91,3.91,0,0,0-.18-.55,3.25,3.25,0,0,0-.25-.48,2.88,2.88,0,0,0-.31-.4,2.8,2.8,0,0,0-.38-.34,3,3,0,0,0-.44-.27,3.61,3.61,0,0,0-.5-.21,4.56,4.56,0,0,0-.56-.14l-.23,0-.23,0-.47-.07-.16,0-.15,0-.15,0H46a3,3,0,0,0-.51,0,1.56,1.56,0,0,0-.41.09,1,1,0,0,0-.32.19,1.07,1.07,0,0,0-.23.31,1.62,1.62,0,0,0-.12.31,2.77,2.77,0,0,0-.08.39q0,.23,0,.47t0,.55l.69,7.49.15,1.61.34,3.6.35,3.76c.1,1.08.18,1.88.2,2.1s.06.6.09.85a4.31,4.31,0,0,1,0,.63.79.79,0,0,1-.12.43.61.61,0,0,1-.38.23h0c-.14,0-.25-.11-.35-.3A3.17,3.17,0,0,1,45,36q-.07-.36-.11-.72c0-.2,0-.33,0-.33l-.23-2q-.49-4.45-1-8.9l-.13-1.22-.13-1.18-.12-1.13-.11-1.07a6.86,6.86,0,0,0-.17-1,4.39,4.39,0,0,0-.31-.85,3.27,3.27,0,0,0-.48-.73,3.1,3.1,0,0,0-.69-.58l-.09-.05-.09-.05-.09-.05-.1,0a4.91,4.91,0,0,0-.66-.25q-.33-.1-.68-.17l-.68-.12-.69-.12-.39-.07-.37,0a3.81,3.81,0,0,0-.61,0,2.59,2.59,0,0,0-.53.11,1.88,1.88,0,0,0-.44.21,1.66,1.66,0,0,0-.36.31,1.89,1.89,0,0,0-.29.45,2.62,2.62,0,0,0-.18.58,4,4,0,0,0-.08.7,6.34,6.34,0,0,0,0,.82q.14,1.39.26,2.79t.21,2.79c0,.52.12,1.44.23,2.57s.25,2.45.4,3.79.32,2.68.5,3.84A27.74,27.74,0,0,0,37.36,37l.16.61c.05.21.12.43.2.7s.18.59.32,1,.31.87.53,1.45c-.17-.07-.4-.09-.65-.17a2,2,0,0,1-.84-.51,4.51,4.51,0,0,1-.92-1.45,15.81,15.81,0,0,1-.89-3q-.14-.92-.25-1.84c-.08-.68-.16-1.42-.24-2.2s-.15-1.58-.23-2.39-.14-1.62-.21-2.41l-.06-.78-.06-.78-.06-.78-.06-.78L34,22.31q-.06-.71-.12-1.42t-.13-1.42q-.07-.71-.14-1.42,0-.36-.1-.72t-.14-.64a5.21,5.21,0,0,0-.18-.56,4.12,4.12,0,0,0-.23-.5h0a3.44,3.44,0,0,0-.47-.65,3.6,3.6,0,0,0-.62-.53A5.06,5.06,0,0,0,31,14a8.64,8.64,0,0,0-1-.36l-.68-.19q-.68-.19-1.38-.33l-.7-.13-.44-.07-.41,0a5.2,5.2,0,0,0-1.14,0,3.07,3.07,0,0,0-.93.28,2.41,2.41,0,0,0-.72.55,3,3,0,0,0-.51.82h0a4.2,4.2,0,0,0-.17.49q-.08.27-.13.55c0,.19-.07.4-.09.62s0,.45-.05.68c0,.07,0,.14,0,.21v.48s0,0,0,0q0,.35,0,.71,0,.66.08,1.3t.07,1.29q0,.64.06,1.28L23,23.47q0,.83.08,1.66t.08,1.66q0,.83.1,1.67t.12,1.69c0,.65.09,1.3.13,2s.09,1.3.14,1.95.13,1.29.23,1.93.22,1.28.38,1.9a6.78,6.78,0,0,0,.67,1.7,4.7,4.7,0,0,0,1,1.24,4.56,4.56,0,0,0,1.34.79,6.17,6.17,0,0,0,1.64.37l.48,0a7.94,7.94,0,0,0,.85,0l.42,0,.45-.05.51-.07.59-.09.69-.12,2-.33,1.76-.28,1.65-.27L40,40.53l2.43-.45,2.36-.42,2.29-.42,2.23-.43a3.77,3.77,0,0,0,1.28-.49,3,3,0,0,0,.9-.88A4.1,4.1,0,0,0,52,36.19a7.54,7.54,0,0,0,.22-1.64v-1ZM24.5,9.69a5.26,5.26,0,0,0,1,1.32,4.91,4.91,0,0,0,1.28.93,3.91,3.91,0,0,0,1.45.41,3,3,0,0,0,1.35-.2,2.64,2.64,0,0,0,1-.73,2.92,2.92,0,0,0,.6-1.15,3.75,3.75,0,0,0,.09-1.45,4.75,4.75,0,0,0-.46-1.51,5.28,5.28,0,0,0-.9-1.3,5,5,0,0,0-1.23-1,4,4,0,0,0-1.44-.47,3.06,3.06,0,0,0-1.39.14,2.65,2.65,0,0,0-1.07.71,2.9,2.9,0,0,0-.64,1.17A3.75,3.75,0,0,0,24,8.12a4.77,4.77,0,0,0,.49,1.57Zm11.64,3a4.38,4.38,0,0,0,.76,1.1,3.84,3.84,0,0,0,1,.77,2.94,2.94,0,0,0,1.16.33,2.27,2.27,0,0,0,1.08-.18A2.15,2.15,0,0,0,41,14a2.6,2.6,0,0,0,.48-1,3.4,3.4,0,0,0,.07-1.24,4.19,4.19,0,0,0-.37-1.28,4.4,4.4,0,0,0-.73-1.09,3.93,3.93,0,0,0-1-.79,3,3,0,0,0-1.15-.37,2.3,2.3,0,0,0-1.1.14,2.14,2.14,0,0,0-.85.62,2.56,2.56,0,0,0-.51,1,3.39,3.39,0,0,0-.07,1.28,4.2,4.2,0,0,0,.39,1.32Zm8.29-1.09a4,4,0,0,0,.65,1,3.33,3.33,0,0,0,.87.7,2.45,2.45,0,0,0,1,.3,1.84,1.84,0,0,0,.92-.16,1.82,1.82,0,0,0,.69-.56A2.35,2.35,0,0,0,49,12,3.18,3.18,0,0,0,49,10.85a3.9,3.9,0,0,0-.32-1.15,4,4,0,0,0-.62-1A3.4,3.4,0,0,0,47.22,8a2.5,2.5,0,0,0-1-.34,1.87,1.87,0,0,0-.94.12,1.81,1.81,0,0,0-.72.55,2.31,2.31,0,0,0-.43.89,3.18,3.18,0,0,0-.06,1.14,3.91,3.91,0,0,0,.34,1.18Z"/><path class="cls-2" d="M21.73,42.5l-.19-.08-.15-.06-.16-.07-.09,0L21,42.17l-.17-.08-.09,0a5.48,5.48,0,0,1-1.2-.67,3.54,3.54,0,0,1-.85-.92,4.43,4.43,0,0,1-.54-1.27,9.18,9.18,0,0,1-.27-1.73q-.07-1.32-.12-2.65,0-.66,0-1.31t0-1.3q0-.95-.06-1.88t-.06-1.86q0-.92-.07-1.83t-.08-1.81a3.67,3.67,0,0,1,0-.77,1.06,1.06,0,0,1,.18-.49.73.73,0,0,1,.37-.26,1.88,1.88,0,0,1,.59-.07h1.2l.31,0h.1a1.5,1.5,0,0,0,.53-.08,1.26,1.26,0,0,0,.41-.24,1.51,1.51,0,0,0,.32-.39,2.27,2.27,0,0,0,.22-.53,2.89,2.89,0,0,0,.11-.57,2.29,2.29,0,0,0,0-.54,2.12,2.12,0,0,0-.15-.51,2.32,2.32,0,0,0-.29-.48l0,0-.08-.1,0,0a2.93,2.93,0,0,0-.42-.38,2.73,2.73,0,0,0-.45-.27,3.14,3.14,0,0,0-.48-.18,4.42,4.42,0,0,0-.51-.11A7.26,7.26,0,0,1,18,18.56a1.36,1.36,0,0,1-.68-.47,1.9,1.9,0,0,1-.3-.88A12.86,12.86,0,0,1,17,15.71v-.17c0-.06,0-.11,0-.17s0-.11,0-.17,0-.11,0-.17,0-.38,0-.57a6,6,0,0,0-.22-1.08q-.08-.26-.18-.51a5.31,5.31,0,0,0-.42-.8,4.89,4.89,0,0,0-.54-.7,4.56,4.56,0,0,0-.66-.59,4.48,4.48,0,0,0-.78-.46q-.67-.31-1.36-.57t-1.4-.47q-.71-.21-1.45-.35T8.4,8.71H7.73a3.36,3.36,0,0,0-.84.06l-.39.11a3,3,0,0,0-1.26.82A3.24,3.24,0,0,0,5,9.95a3.49,3.49,0,0,0-.28.45,3.84,3.84,0,0,0-.21.5,4.18,4.18,0,0,0-.15.56,4.62,4.62,0,0,0-.08.6c0,.2,0,.41,0,.61s0,.41,0,.61,0,.41,0,.61,0,.41,0,.61,0,.37,0,.52,0,.27,0,.41a2.11,2.11,0,0,1-.05.31A.81.81,0,0,1,4,16a.49.49,0,0,1-.19.18.91.91,0,0,1-.31.09,3.53,3.53,0,0,1-.45,0H2.43a2.48,2.48,0,0,0-.56,0,2.24,2.24,0,0,0-1.33.81l-.14.2-.12.21a2.6,2.6,0,0,0-.24.7c0,.08,0,.16,0,.24s0,.08,0,.12v.38A3.16,3.16,0,0,0,.25,20a2.91,2.91,0,0,0,.58.87,3.16,3.16,0,0,0,.88.64,3.94,3.94,0,0,0,1.15.36,2.39,2.39,0,0,1,.71.21,1.21,1.21,0,0,1,.45.37,1.45,1.45,0,0,1,.23.55,3.41,3.41,0,0,1,.06.75q0,2.27,0,4.54,0,1.14,0,2.27,0,1.45,0,2.91v.63q0,.32,0,.63t0,.63c0,.54,0,1.07.06,1.6s.09,1.06.16,1.58.17,1,.29,1.55a14.86,14.86,0,0,0,.44,1.5,5.59,5.59,0,0,0,.5,1.08,4.51,4.51,0,0,0,.68.86,4.39,4.39,0,0,0,.84.65,5.12,5.12,0,0,0,1,.45,6.62,6.62,0,0,0,.87.23A7.16,7.16,0,0,0,10,45a8.48,8.48,0,0,0,.87,0c.29,0,.58,0,.87-.07h0q.59-.08,1.17-.2L15,44.27l2-.46,2-.46,1.94-.46.28-.06.27-.06.27-.06.27-.06-.29-.13ZM7.91,5.78A5.77,5.77,0,0,0,8.85,7,4.29,4.29,0,0,0,10,7.79a3.81,3.81,0,0,0,.57.21l.28.06.28,0a3,3,0,0,0,.92,0,2.7,2.7,0,0,0,.81-.32,2.58,2.58,0,0,0,.65-.55A2.66,2.66,0,0,0,14,6.44V6.26a2.93,2.93,0,0,0,.11-.46q0-.12,0-.24c0-.08,0-.17,0-.25a6.08,6.08,0,0,0,0-.77q0-.19-.06-.38T14,3.8a5.75,5.75,0,0,0-.42-1.12,5.4,5.4,0,0,0-.63-1,5,5,0,0,0-.83-.81,4.72,4.72,0,0,0-1-.6,3.5,3.5,0,0,0-.43-.16A3.34,3.34,0,0,0,10.25,0a3.1,3.1,0,0,0-.51,0,2.92,2.92,0,0,0-.49.05,2.75,2.75,0,0,0-.9.35l0,0,0,0,0,0,0,0-.07,0L8,.68a2.62,2.62,0,0,0-.38.42l-.09.13,0,.07a2.66,2.66,0,0,0-.13.26,2.8,2.8,0,0,0-.19.57,3,3,0,0,0-.06.41v.2s0,.07,0,.1a5.21,5.21,0,0,0,.22,1.5,6.18,6.18,0,0,0,.63,1.43Z"/></g></g></svg>