<svg xmlns="http://www.w3.org/2000/svg" viewBox="0 0 44.54 45"><defs><style>.cls-1{fill:#33abe4;}.cls-2{fill:#353535;}</style></defs><title>Tweetdeck</title><g id="Layer_2" data-name="Layer 2"><g id="Layer_1-2" data-name="Layer 1"><path class="cls-1" d="M22.26,11.54a6.47,6.47,0,0,1,2-2.46l.44-.31a6.62,6.62,0,0,1,3.41-1h.13a6.28,6.28,0,0,1,4.52,2l.8-.18.13,0a15.17,15.17,0,0,0,3-1.15,6.45,6.45,0,0,1-2.59,3.32l0,0h.13a6.35,6.35,0,0,0,3.48-1,15.35,15.35,0,0,1-2.19,2.57,10.65,10.65,0,0,1-1.06.93l0,.93a18.05,18.05,0,0,1-17.05,18h-2a17.66,17.66,0,0,1-8.42-2.61,15.39,15.39,0,0,0,9-2.92,7.18,7.18,0,0,1-6.07-4.45l1.35.07,1.62-.09a7.17,7.17,0,0,1-3.52-2.3A7.31,7.31,0,0,1,7.66,16.7a14.11,14.11,0,0,0,2.3.78l.6.13-.47-.4a7.39,7.39,0,0,1-2-3.37A5,5,0,0,1,8,13.29,6.63,6.63,0,0,1,7.82,12a7.31,7.31,0,0,1,.84-3.39,13.72,13.72,0,0,0,1.66,2.08,15.17,15.17,0,0,0,3.28,2.64,5,5,0,0,0,.58.33l1.09.55a15.46,15.46,0,0,0,6.09,1.31h.47l-.11-.73,0-.58,0-.33a4.67,4.67,0,0,1,0-.55A5.41,5.41,0,0,1,22,12.11Zm.54,33.24,5.13-5.13a.76.76,0,0,1,.54-.22h9.83a6.27,6.27,0,0,0,6.25-6.27V6.27A6.29,6.29,0,0,0,38.27,0h-32A6.26,6.26,0,0,0,0,6.25V33.16a6.27,6.27,0,0,0,6.25,6.27h9.83a.76.76,0,0,1,.54.22l5.11,5.13A.76.76,0,0,0,22.79,44.78Z"/><path class="cls-2" d="M17.34,33.18a18.05,18.05,0,0,0,17.05-18l0-.93a10.65,10.65,0,0,0,1.06-.93,15.35,15.35,0,0,0,2.19-2.57,6.35,6.35,0,0,1-3.48,1H34l0,0a6.45,6.45,0,0,0,2.59-3.32,15.17,15.17,0,0,1-3,1.15l-.13,0-.8.18a6.28,6.28,0,0,0-4.52-2h-.13a6.62,6.62,0,0,0-3.41,1l-.44.31a6.47,6.47,0,0,0-2,2.46l-.22.58a5.41,5.41,0,0,0-.29,1.17,4.7,4.7,0,0,0,0,.55l0,.33,0,.58.11.73h-.47a15.46,15.46,0,0,1-6.09-1.31l-1.09-.55-.58-.33a15.17,15.17,0,0,1-3.28-2.64A13.73,13.73,0,0,1,8.66,8.57,7.31,7.31,0,0,0,7.82,12,6.64,6.64,0,0,0,8,13.29l.13.55a7.39,7.39,0,0,0,2,3.37l.47.4-.6-.13a14.11,14.11,0,0,1-2.3-.78,7.31,7.31,0,0,0,1.66,4.16,7.17,7.17,0,0,0,3.52,2.3l-1.62.09-1.35-.07a7.18,7.18,0,0,0,6.07,4.45,15.39,15.39,0,0,1-9,2.92,17.66,17.66,0,0,0,8.42,2.61h2Z"/></g></g></svg>