<svg xmlns="http://www.w3.org/2000/svg" viewBox="0 0 55.37 45"><defs><style>.cls-1{fill:#21a9e3;}</style></defs><title>Twitter</title><g id="Layer_2" data-name="Layer 2"><g id="Layer_1-2" data-name="Layer 1"><path class="cls-1" d="M55.37,5.32a22.68,22.68,0,0,1-6.52,1.79,11.39,11.39,0,0,0,5-6.28,22.69,22.69,0,0,1-7.21,2.76A11.36,11.36,0,0,0,27,11.36a11.49,11.49,0,0,0,.29,2.59A32.25,32.25,0,0,1,3.86,2.08,11.37,11.37,0,0,0,7.37,17.25a11.31,11.31,0,0,1-5.15-1.42V16a11.36,11.36,0,0,0,9.11,11.14,11.3,11.3,0,0,1-3,.4,11.53,11.53,0,0,1-2.14-.2,11.37,11.37,0,0,0,10.61,7.89A22.79,22.79,0,0,1,2.71,40.06,22.66,22.66,0,0,1,0,39.89,32.15,32.15,0,0,0,17.41,45C38.3,45,49.73,27.69,49.73,12.68q0-.74,0-1.47a23.14,23.14,0,0,0,5.68-5.89Z"/></g></g></svg>