<?xml version="1.0" encoding="UTF-8" standalone="no"?>
<svg width="415px" height="415px" viewBox="0 0 415 415" version="1.1" xmlns="http://www.w3.org/2000/svg" xmlns:xlink="http://www.w3.org/1999/xlink">
    <!-- Generator: Sketch 39.1 (31720) - http://www.bohemiancoding.com/sketch -->
    <title>vk</title>
    <desc>Created with Sketch.</desc>
    <defs></defs>
    <g id="Page-1" stroke="none" stroke-width="1" fill="none" fill-rule="evenodd">
        <g id="vk">
            <g id="Group-3" fill="#4B6C91">
                <path d="M63.942,0.041 L351.017,0.041 C386.33,0.041 414.959,28.669 414.959,63.983 L414.959,351.058 C414.959,386.371 386.33,415 351.017,415 L63.942,415 C28.628,415 0,386.371 0,351.058 L0,63.983 C0,28.669 28.628,0.041 63.942,0.041" id="Fill-1"></path>
            </g>
            <path d="M203.998,290.525 L220.972,290.525 C220.972,290.525 226.098,289.96 228.719,287.14 C231.128,284.548 231.051,279.684 231.051,279.684 C231.051,279.684 230.719,256.908 241.288,253.554 C251.711,250.248 265.092,275.566 279.274,285.302 C289.999,292.667 298.149,291.055 298.149,291.055 L336.074,290.525 C336.074,290.525 355.912,289.301 346.505,273.703 C345.735,272.429 341.025,262.165 318.306,241.077 C294.524,219.005 297.712,222.576 326.357,184.397 C343.802,161.146 350.775,146.952 348.596,140.873 C346.52,135.081 333.688,136.611 333.688,136.611 L290.988,136.875 C290.988,136.875 287.82,136.444 285.474,137.848 C283.179,139.221 281.706,142.429 281.706,142.429 C281.706,142.429 274.945,160.42 265.935,175.723 C246.921,208.009 239.317,209.718 236.209,207.71 C228.978,203.037 230.785,188.941 230.785,178.924 C230.785,147.634 235.531,134.588 221.543,131.211 C216.902,130.091 213.483,129.35 201.612,129.229 C186.375,129.074 173.482,129.276 166.18,132.853 C161.322,135.232 157.574,140.532 159.858,140.837 C162.681,141.213 169.071,142.562 172.459,147.172 C176.836,153.127 176.683,166.495 176.683,166.495 C176.683,166.495 179.198,203.328 170.811,207.902 C165.056,211.04 157.16,204.634 140.208,175.342 C131.524,160.338 124.965,143.751 124.965,143.751 C124.965,143.751 123.702,140.652 121.446,138.993 C118.71,136.983 114.887,136.346 114.887,136.346 L74.309,136.611 C74.309,136.611 68.219,136.781 65.981,139.43 C63.99,141.788 65.822,146.659 65.822,146.659 C65.822,146.659 97.588,220.981 133.56,258.435 C166.547,292.779 203.998,290.525 203.998,290.525" id="Fill-4" fill="#FFFFFF"></path>
        </g>
    </g>
</svg>