<?xml version="1.0" encoding="UTF-8" standalone="no"?>
<svg width="80px" height="80px" viewBox="0 0 80 80" version="1.1" xmlns="http://www.w3.org/2000/svg" xmlns:xlink="http://www.w3.org/1999/xlink">
    <!-- Generator: Sketch 3.7.2 (28276) - http://www.bohemiancoding.com/sketch -->
    <title>wechat</title>
    <desc>Created with Sketch.</desc>
    <defs></defs>
    <g id="icons" stroke="none" stroke-width="1" fill="none" fill-rule="evenodd">
        <g id="wechat" fill="#2DC100">
            <g id="Page-1" transform="translate(0.000000, 6.000000)">
                <path d="M39.3781381,16.2289304 C37.5392135,16.262653 35.9853314,17.8224772 36.0179605,19.6024181 C36.051513,21.4473517 37.5758443,22.8906796 39.4667907,22.8679935 C41.3626623,22.8453073 42.8004957,21.386651 42.7826421,19.5027831 C42.7669432,17.6535576 41.249384,16.1949012 39.3781381,16.2289304 M21.4810982,19.6536152 C21.5497423,17.8807254 20.0072496,16.2834997 18.1750971,16.2301567 C16.2992339,16.1752808 14.7564334,17.6029737 14.7016412,19.4439218 C14.6462333,21.3097021 16.0791416,22.8048402 17.968549,22.852665 C19.8416418,22.8998767 21.4118384,21.4703444 21.4810982,19.6536152 M55.7837838,22.6739352 C48.3305059,23.0617452 41.8493278,25.3119633 36.58743,30.3958007 C31.2710478,35.5320614 28.8441844,41.8259275 29.5075394,49.6281142 C26.5943183,49.2688151 23.9408984,48.8733408 21.2723953,48.6495453 C20.3507782,48.5722898 19.2570891,48.6820416 18.4764542,49.1207421 C15.8852142,50.5769459 13.4010961,52.2210767 10.456785,54.0540541 C10.9970115,51.6205076 11.3466965,49.4895449 11.9657252,47.4398231 C12.4209929,45.933342 12.2101353,45.0948751 10.8166282,44.1138536 C1.86949338,37.8227466 -1.90193356,28.4076993 0.920480215,18.7145937 C3.53172856,9.74744395 9.94426252,4.30921253 18.6574531,1.47436695 C30.5501302,-2.39453662 43.9154246,1.55192896 51.1470711,10.9556332 C53.7589351,14.3524202 55.3605295,18.164915 55.7837838,22.6739352" id="Fill-1"></path>
                <path d="M63.1036806,38.1611604 C61.6806152,38.1513121 60.4714904,39.3083349 60.4134981,40.7363343 C60.3519,42.2634133 61.5469024,43.5174266 63.0685247,43.5213062 C64.5402675,43.5260811 65.7031187,42.4206872 65.7566038,40.9661273 C65.8136947,39.4354671 64.6180914,38.1716055 63.1036806,38.1611604 M46.1984692,43.5395106 C47.6651039,43.5410027 48.8727263,42.4009907 48.9283148,40.9622477 C48.9869081,39.4390483 47.7534445,38.1614588 46.2176998,38.1551918 C44.6972794,38.1483278 43.4235517,39.4438232 43.4764359,40.9443417 C43.5263153,42.3780114 44.7423512,43.53772 46.1984692,43.5395106 M72.4224151,68.7567568 C70.1186478,67.7379083 68.0053837,66.2093371 65.7554019,65.9759629 C63.514134,65.743484 61.1580834,67.027639 58.8131505,67.2657881 C51.6704801,67.9915759 45.2714935,66.0144607 39.995094,61.1682156 C29.9600191,51.9496363 31.3939017,37.8146803 43.004084,30.2601605 C53.3228104,23.5460265 68.4558007,25.7842701 75.7309821,35.1004369 C82.0797888,43.2297377 81.3337011,54.0210562 73.5831629,60.850385 C71.3403927,62.8269034 70.5333079,64.4533604 71.9722986,67.0589744 C72.2379214,67.5400475 72.2682698,68.1491482 72.4224151,68.7567568" id="Fill-4"></path>
            </g>
        </g>
    </g>
</svg>