<?xml version="1.0" encoding="UTF-8" standalone="no"?>
<svg width="80px" height="80px" viewBox="0 0 80 80" version="1.1" xmlns="http://www.w3.org/2000/svg" xmlns:xlink="http://www.w3.org/1999/xlink">
    <!-- Generator: Sketch 3.7.2 (28276) - http://www.bohemiancoding.com/sketch -->
    <title>whatsapp</title>
    <desc>Created with Sketch.</desc>
    <defs></defs>
    <g id="icons" stroke="none" stroke-width="1" fill="none" fill-rule="evenodd">
        <g id="whatsapp">
            <g id="Page-1" fill="#25D366">
                <path d="M68.3217566,11.7017088 C60.8038568,4.17502625 50.805957,0.0282004773 40.1537375,0.0238090692 C18.2056706,0.0238090692 0.342568019,17.8857661 0.333785203,39.8405155 C0.330921241,46.8587494 2.16442959,53.7087733 5.6491074,59.7477232 L3.81861576e-05,80.3818043 L21.1089642,74.8446205 C26.9250979,78.0169356 33.4734511,79.6891074 40.1378902,79.6912076 L40.1541193,79.6912076 L40.1543103,79.6912076 C62.1000859,79.6912076 79.964716,61.8275322 79.9736897,39.872401 C79.9776993,29.2325919 75.8396563,19.2282005 68.3217566,11.7017088" id="Fill-1"></path>
                <path d="M40.1541193,72.9664344 L40.1407542,72.9664344 C34.201852,72.9641432 28.3769356,71.3685346 23.2955036,68.3531647 L22.0869117,67.6358377 L9.56070644,70.9217566 L12.9040955,58.7086778 L12.1172697,57.4563628 C8.80423866,52.1870549 7.054358,46.0967446 7.05703103,39.8429976 C7.0642864,21.5951695 21.9114463,6.74915513 40.1672936,6.74915513 C49.007389,6.75221002 57.3170788,10.1992745 63.5660525,16.4553126 C69.8146444,22.710969 73.2538807,31.0263866 73.2504439,39.8697279 C73.2429976,58.1190835 58.3960286,72.9664344 40.1541193,72.9664344" id="Path"></path>
            </g>
            <path d="M58.3082005,48.1788449 C57.3132601,47.6808974 52.4216134,45.2742148 51.509537,44.9418043 C50.5976516,44.6097757 49.934358,44.4440477 49.2710644,45.4397518 C48.6077709,46.4356468 46.7009451,48.6769833 46.1205155,49.3410406 C45.5402768,50.0049069 44.9598473,50.0883437 43.9649069,49.5900143 C42.9699666,49.0920668 39.7640477,48.0415656 35.9637613,44.6515895 C33.0060525,42.0133079 31.0091074,38.7552649 30.4288687,37.759179 C29.8484391,36.7630931 30.3668162,36.2246683 30.8649547,35.7286301 C31.3126874,35.2826158 31.8600859,34.5664344 32.3574606,33.985432 C32.8550263,33.4046205 33.0207542,32.9893461 33.352401,32.3256706 C33.6840477,31.6614224 33.5183198,31.080611 33.2693461,30.5826635 C33.0207542,30.084716 31.0308735,25.1871504 30.201852,23.1947876 C29.3942148,21.2549308 28.5739761,21.5176516 27.9631885,21.4869117 C27.3835227,21.4580811 26.7194654,21.4519714 26.0563628,21.4519714 C25.3930692,21.4519714 24.315074,21.7009451 23.4029976,22.6968401 C22.4911122,23.692926 19.9208019,26.1001814 19.9208019,30.9971742 C19.9208019,35.8947399 23.4858616,40.6256229 23.9834272,41.2896802 C24.4809928,41.9539284 30.999179,52.0033795 40.9802768,56.3130692 C43.3539284,57.3383675 45.2072936,57.9504916 46.6522578,58.4089165 C49.0356468,59.1663389 51.2046205,59.0594177 52.9189881,58.8031885 C54.8305871,58.517747 58.8055752,56.396506 59.6347876,54.0724964 C60.4638091,51.7479141 60.4638091,49.7559332 60.2150263,49.3410406 C59.9664344,48.925957 59.3031408,48.6769833 58.3082005,48.1788449" id="Path" fill="#FFFFFF"></path>
        </g>
    </g>
</svg>