<?xml version="1.0" encoding="UTF-8" standalone="no"?>
<svg width="1024px" height="844px" viewBox="0 0 1024 844" version="1.1" xmlns="http://www.w3.org/2000/svg" xmlns:xlink="http://www.w3.org/1999/xlink">
    <!-- Generator: Sketch 39.1 (31720) - http://www.bohemiancoding.com/sketch -->
    <title>Wire symbol</title>
    <desc>Created with Sketch.</desc>
    <defs></defs>
    <g id="Page-1" stroke="none" stroke-width="1" fill="none" fill-rule="evenodd">
        <path d="M572.235294,120.470588 C572.235294,87.2515561 545.211595,60.2352941 512,60.2352941 C478.788405,60.2352941 451.764706,87.2515561 451.764706,120.470588 L451.764706,527.056964 C451.764706,589.727998 474.478447,647.133372 512,691.679525 C549.521553,647.133372 572.235294,589.727998 572.235294,527.056964 L572.235294,120.470588 Z M1024,527.056964 C1024,701.426204 883.091507,843.294118 708.71483,843.294118 C634.78733,843.294118 567.810056,817.601708 513.903968,774.937211 C459.99416,817.601708 391.432726,843.294118 317.505226,843.294118 C143.128549,843.294118 0,701.426204 0,527.056964 L0,30.1176471 L60.2352941,30.1176471 L60.2352941,527.056964 C60.2352941,668.218328 175.707967,783.058824 316.86933,783.058824 C373.728056,783.058824 426.77141,764.197642 469.305753,732.718956 C421.747463,677.362579 391.529412,605.588199 391.529412,527.056964 L391.529412,120.470588 C391.529412,54.04368 445.573092,0 512,0 C578.426908,0 632.470588,54.04368 632.470588,120.470588 L632.470588,527.056964 C632.470588,605.588199 604.156504,677.362579 556.598215,732.718956 C599.132558,764.197642 652.172193,783.058824 709.034638,783.058824 C850.196001,783.058824 963.764706,668.218328 963.764706,527.056964 L963.764706,30.1176471 L1024,30.1176471 L1024,527.056964 Z" id="Wire-symbol" fill="#000000"></path>
    </g>
</svg>