<?xml version="1.0" encoding="UTF-8" standalone="no"?>
<svg width="80px" height="80px" viewBox="0 0 80 80" version="1.1" xmlns="http://www.w3.org/2000/svg" xmlns:xlink="http://www.w3.org/1999/xlink">
    <!-- Generator: Sketch 39.1 (31720) - http://www.bohemiancoding.com/sketch -->
    <title>yahooMessenger</title>
    <desc>Created with Sketch.</desc>
    <defs></defs>
    <g id="icons" stroke="none" stroke-width="1" fill="none" fill-rule="evenodd">
        <g id="yahooMessenger">
            <g id="Yahoo__Messenger" transform="translate(0.000000, 17.000000)">
                <path d="M51.82,40.1586667 C47.2133333,43.576 41.5,45.576 34.7266667,46.1586667 L26.06,46.1586667 C19.2386667,45.576 13.5346667,43.576 9.00266667,40.1586667 C3.44933333,36.0386667 0.672,30.6626667 0.672,24.0333333 C0.672,17.4946667 3.44933333,12.208 9.00266667,8.088 C14.4666667,3.87866667 21.6333333,1.81866667 30.4106667,1.81866667 C39.1,1.81866667 46.2666667,3.87866667 51.82,8.088 C57.284,12.208 60.0613333,17.4946667 60.0613333,24.0333333 C60.0613333,30.6626667 57.284,36.0386667 51.82,40.1586667" id="Fill-2" fill="#7A2D7C"></path>
                <polyline id="Fill-3" fill="#7A2D7C" points="71.5253333 45.4413333 63.464 44.456 64.3613333 37.3813333 72.4226667 38.3653333 71.5253333 45.4413333"></polyline>
                <polyline id="Fill-4" fill="#7A2D7C" points="79.5893333 2.53466667 65.7933333 0.833333333 65.8826667 32.8133333 71.8853333 33.6186667 79.5893333 2.53466667"></polyline>
                <path d="M47.6986667,18.5693333 L43.4893333,19.4653333 C42.8626667,19.644 41.16,20.8973333 38.204,23.3186667 C35.0693333,25.8253333 33.456,27.4386667 33.188,28.244 L33.0093333,30.4826667 L32.9186667,31.828 L33.2773333,35.2306667 L38.8306667,35.3213333 L38.7413333,37.0226667 L29.6946667,37.0226667 L21.6333333,37.112 L21.9013333,35.4986667 L24.4986667,35.4093333 C25.8426667,35.3213333 26.6493333,35.1413333 26.9173333,34.872 C27.0973333,34.6946667 27.1866667,33.6186667 27.1866667,31.7373333 L27.1866667,30.5733333 L27.0973333,28.244 C26.9173333,27.708 25.484,25.736 22.708,22.332 C19.8413333,18.8386667 17.96,16.7773333 17.064,16.06 L11.8693333,15.344 L11.8693333,13.82 C12.1373333,13.6426667 15.004,13.6426667 20.2893333,13.732 C23.9613333,13.6426667 27.008,13.6426667 29.4266667,13.82 L29.2466667,15.076 L23.7826667,15.6146667 C25.484,18.1213333 28.0826667,21.6146667 31.576,26.004 C36.144,22.5093333 38.5626667,20.2706667 38.652,19.2866667 L33.9946667,18.5693333 L33.636,16.9573333 L41.4293333,16.9573333 L48.7746667,17.0466667 L47.6986667,18.5693333" id="Fill-5" fill="#7A2D7C"></path>
                <polyline id="Fill-6" fill="#7A2D7C" points="74.572 38.3653333 73.9453333 38.3653333 73.9453333 37.9186667 75.6466667 37.9186667 75.6466667 38.3653333 75.02 38.3653333 75.02 40.068 74.572 40.068 74.572 38.3653333"></polyline>
                <polyline id="Fill-7" fill="#7A2D7C" points="76.5426667 38.5466667 76.5426667 40.068 76.0946667 40.068 76.0946667 37.9186667 76.6333333 37.9186667 77.26 38.9933333 77.8866667 37.9186667 78.3346667 37.9186667 78.3346667 40.068 77.8866667 40.068 77.8866667 38.5466667 77.26 39.6213333 77.1693333 39.6213333 76.5426667 38.5466667"></polyline>
                <path d="M34.7266667,46.1586667 L26.06,46.1586667 C19.2386667,45.576 13.5346667,43.576 9.00266667,40.1586667 C3.44933333,36.0386667 0.672,30.6626667 0.672,24.0333333 C0.672,17.4946667 3.44933333,12.208 9.00266667,8.088 C14.4666667,3.87866667 21.6333333,1.81866667 30.4106667,1.81866667 C39.1,1.81866667 46.2666667,3.87866667 51.82,8.088 C57.284,12.208 60.0613333,17.4946667 60.0613333,24.0333333 C60.0613333,30.6626667 57.284,36.0386667 51.82,40.1586667 C47.2133333,43.576 41.5,45.576 34.7266667,46.1586667 Z" id="Fill-8" fill="#7A2D7C"></path>
                <polyline id="Fill-9" fill="#7A2D7C" points="71.5253333 45.4413333 63.464 44.456 64.3613333 37.3813333 72.4226667 38.3653333 71.5253333 45.4413333"></polyline>
                <polyline id="Fill-10" fill="#7A2D7C" points="79.5893333 2.53466667 65.7933333 0.833333333 65.8826667 32.8133333 71.8853333 33.6186667 79.5893333 2.53466667"></polyline>
                <path d="M47.6986667,18.5693333 L43.4893333,19.4653333 C42.8626667,19.644 41.16,20.8973333 38.204,23.3186667 C35.0693333,25.8253333 33.456,27.4386667 33.188,28.244 L33.0093333,30.4826667 L32.9186667,31.828 L33.2773333,35.2306667 L38.8306667,35.3213333 L38.7413333,37.0226667 L29.6946667,37.0226667 L21.6333333,37.112 L21.9013333,35.4986667 L24.4986667,35.4093333 C25.8426667,35.3213333 26.6493333,35.1413333 26.9173333,34.872 C27.0973333,34.6946667 27.1866667,33.6186667 27.1866667,31.7373333 L27.1866667,30.5733333 L27.0973333,28.244 C26.9173333,27.708 25.484,25.736 22.708,22.332 C19.8413333,18.8386667 17.96,16.7773333 17.064,16.06 L11.8693333,15.344 L11.8693333,13.82 C12.1373333,13.6426667 15.004,13.6426667 20.2893333,13.732 C23.9613333,13.6426667 27.008,13.6426667 29.4266667,13.82 L29.2466667,15.076 L23.7826667,15.6146667 C25.484,18.1213333 28.0826667,21.6146667 31.576,26.004 C36.144,22.5093333 38.5626667,20.2706667 38.652,19.2866667 L33.9946667,18.5693333 L33.636,16.9573333 L41.4293333,16.9573333 L48.7746667,17.0466667 L47.6986667,18.5693333" id="Fill-11" fill="#FFFFFF"></path>
                <polyline id="Fill-12" fill="#7A2D7C" points="74.572 38.3653333 73.9453333 38.3653333 73.9453333 37.9186667 75.6466667 37.9186667 75.6466667 38.3653333 75.02 38.3653333 75.02 40.068 74.572 40.068 74.572 38.3653333"></polyline>
                <polyline id="Fill-13" fill="#7A2D7C" points="76.5426667 38.5466667 76.5426667 40.068 76.0946667 40.068 76.0946667 37.9186667 76.6333333 37.9186667 77.26 38.9933333 77.8866667 37.9186667 78.3346667 37.9186667 78.3346667 40.068 77.8866667 40.068 77.8866667 38.5466667 77.26 39.6213333 77.1693333 39.6213333 76.5426667 38.5466667"></polyline>
            </g>
        </g>
    </g>
</svg>